<?xml version="1.0" encoding="UTF-8"?>
<!-- Generated by jsxcad -->
<!DOCTYPE svg PUBLIC "-//W3C//DTD SVG 1.1 Tiny//EN" "http://www.w3.org/Graphics/SVG/1.1/DTD/svg11-tiny.dtd">
<svg viewBox="-250 -250 500 500" width="500" height="500" xmlns="http://www.w3.org/2000/svg"><path d="M180.7434859821839,19.472615505182432L-84.94292083583464,71.81565041984186L-86.65602122220854,84.12442635973565z" style="fill:rgb(84,220,202)"/><path d="M181.74079209239366,29.12556540712809L-86.65602122220854,84.12442635973565L-89.75736496425272,94.133040056056z" style="fill:rgb(85,234,182)"/><path d="M-84.94292083583464,71.81565041984186L180.7434859821839,19.472615505182432L178.87088589177253,7.238692438368327z" style="fill:rgb(84,220,202)"/><path d="M-94.20174306392991,101.38755407791759L181.74079209239366,29.12556540712809L-89.75736496425272,94.133040056056z" style="fill:rgb(89,244,159)"/><path d="M178.87088589177253,7.238692438368327L187.80405392755773,41.83593824720742L185.2886830806192,25.822576126069826z" style="fill:rgb(247,158,158)"/><path d="M-86.65602122220854,84.12442635973565L181.74079209239366,29.12556540712809L180.7434859821839,19.472615505182432z" style="fill:rgb(85,234,182)"/><path d="M187.80405392755773,41.83593824720742L178.87088589177253,7.238692438368327L189.23460280902668,54.727977786494904z" style="fill:rgb(247,158,158)"/><path d="M-99.89259648232236,105.48412499768439L181.78564872962025,35.73745074984462L-94.20174306392991,101.38755407791759z" style="fill:rgb(93,250,135)"/><path d="M189.23460280902668,54.727977786494904L178.87088589177253,7.238692438368327L180.7434859821839,19.472615505182432z" style="fill:rgb(247,158,158)"/><path d="M181.74079209239366,29.12556540712809L-94.20174306392991,101.38755407791759L181.78564872962025,35.73745074984462z" style="fill:rgb(89,244,159)"/><path d="M189.23460280902668,54.727977786494904L180.7434859821839,19.472615505182432L181.74079209239366,29.12556540712809z" style="fill:rgb(247,158,158)"/><path d="M188.40087011143507,68.67073362172982L-101.76802376523523,134.77180576202844L-93.0542186314137,133.32809846326816z" style="fill:rgb(155,4,143)"/><path d="M189.23460280902668,54.727977786494904L181.74079209239366,29.12556540712809L189.46408085156094,63.86969629730962z" style="fill:rgb(247,158,158)"/><path d="M181.78564872962025,35.73745074984462L-99.89259648232236,105.48412499768439L180.82563683883444,38.90377517422184z" style="fill:rgb(93,250,135)"/><path d="M189.46408085156094,63.86969629730962L181.74079209239366,29.12556540712809L181.78564872962025,35.73745074984462zM189.46408085156094,63.86969629730962L181.78564872962025,35.73745074984462L188.40087011143507,68.67073362172982z" style="fill:rgb(247,158,158)"/><path d="M-101.76802376523523,134.77180576202844L188.40087011143507,68.67073362172982L185.99132945165502,68.62548672042121z" style="fill:rgb(155,4,143)"/><path d="M188.40087011143507,68.67073362172982L181.78564872962025,35.73745074984462L180.82563683883444,38.90377517422184z" style="fill:rgb(247,158,158)"/><path d="M-101.76802376523523,134.77180576202844L182.23540163239647,63.3734162689816L-111.72276902864425,131.36975398082294z" style="fill:rgb(148,8,167)"/><path d="M188.40087011143507,68.67073362172982L180.82563683883444,38.90377517422184L178.84155945418675,38.30830900150968z" style="fill:rgb(247,158,158)"/><path d="M182.23540163239647,63.3734162689816L-101.76802376523523,134.77180576202844L185.99132945165502,68.62548672042121z" style="fill:rgb(148,8,167)"/><path d="M188.40087011143507,68.67073362172982L178.84155945418675,38.30830900150968L185.99132945165502,68.62548672042121z" style="fill:rgb(247,158,158)"/><path d="M-111.72276902864425,131.36975398082294L177.202389312866,52.76858789810233L-122.56263306591504,122.94340215798641z" style="fill:rgb(140,16,189)"/><path d="M185.99132945165502,68.62548672042121L178.84155945418675,38.30830900150968L175.8565070230079,33.76167212384869z" style="fill:rgb(247,158,158)"/><path d="M177.202389312866,52.76858789810233L-111.72276902864425,131.36975398082294L182.23540163239647,63.3734162689816z" style="fill:rgb(140,16,189)"/><path d="M171.04377781976052,36.94861136020447L-131.06615318528947,85.74685901325111L-133.83689917211865,109.56882288211459z" style="fill:rgb(83,212,212)"/><path d="M-122.56263306591504,122.94340215798641L171.04377781976052,36.94861136020447L-133.83689917211865,109.56882288211459z" style="fill:rgb(131,29,208)"/><path d="M185.99132945165502,68.62548672042121L175.8565070230079,33.76167212384869L182.23540163239647,63.3734162689816zM182.23540163239647,63.3734162689816L175.8565070230079,33.76167212384869L171.9439240075128,25.241775114422293z" style="fill:rgb(247,158,158)"/><path d="M-131.06615318528947,85.74685901325111L171.04377781976052,36.94861136020447L167.23298554655025,12.929712645414995z" style="fill:rgb(83,212,212)"/><path d="M171.04377781976052,36.94861136020447L-122.56263306591504,122.94340215798641L177.202389312866,52.76858789810233z" style="fill:rgb(131,29,208)"/><path d="M182.23540163239647,63.3734162689816L171.9439240075128,25.241775114422293L177.202389312866,52.76858789810233zM177.202389312866,52.76858789810233L171.9439240075128,25.241775114422293L167.23298554655025,12.929712645414995zM177.202389312866,52.76858789810233L167.23298554655025,12.929712645414995L171.04377781976052,36.94861136020447z" style="fill:rgb(247,158,158)"/><path d="M110.27380554128611,-130.30194849112254L-133.83689917211865,109.56882288211459L171.04377781976052,36.94861136020447z" style="fill:rgb(127,37,217)"/><path d="M167.23298554655025,12.929712645414995L110.27380554128611,-130.30194849112254L171.04377781976052,36.94861136020447z" style="fill:rgb(247,158,158)"/><path d="M-133.83689917211865,109.56882288211459L110.27380554128611,-130.30194849112254L-236.07292149271828,-32.66326605089951z" style="fill:rgb(127,37,217)"/><path d="M110.27380554128611,-130.30194849112254L-230.4575135354871,-56.651105756080625L-236.07292149271828,-32.66326605089951z" style="fill:rgb(83,212,212)"/><path d="M110.27380554128611,-130.30194849112254L167.23298554655025,12.929712645414995L107.41850041416588,-153.88555488239206z" style="fill:rgb(247,158,158)"/><path d="M-230.4575135354871,-56.651105756080625L110.27380554128611,-130.30194849112254L107.41850041416588,-153.88555488239206z" style="fill:rgb(83,212,212)"/></svg>
