<?xml version="1.0" encoding="UTF-8"?>
<!-- Generated by jsxcad -->
<!DOCTYPE svg PUBLIC "-//W3C//DTD SVG 1.1 Tiny//EN" "http://www.w3.org/Graphics/SVG/1.1/DTD/svg11-tiny.dtd">
<svg viewBox="-250 -250 500 500" width="500" height="500" xmlns="http://www.w3.org/2000/svg"><path d="M180.74348598218387,19.472615505182425L-84.94292083583463,71.81565041984184L-86.65602122220851,84.12442635973562z" style="fill:rgb(84,220,202)"/><path d="M181.74079209239363,29.125565407128082L-86.65602122220851,84.12442635973562L-89.7573649642527,94.13304005605599z" style="fill:rgb(85,234,182)"/><path d="M-84.94292083583463,71.81565041984184L180.74348598218387,19.472615505182425L178.87088589177245,7.238692438368324z" style="fill:rgb(84,220,202)"/><path d="M-94.2017430639299,101.38755407791757L181.74079209239363,29.125565407128082L-89.7573649642527,94.13304005605599z" style="fill:rgb(89,244,159)"/><path d="M178.87088589177245,7.238692438368324L187.8040539275577,41.835938247207416L185.28868308061914,25.822576126069823z" style="fill:rgb(247,158,158)"/><path d="M-86.65602122220851,84.12442635973562L181.74079209239363,29.125565407128082L180.74348598218387,19.472615505182425z" style="fill:rgb(85,234,182)"/><path d="M187.8040539275577,41.835938247207416L178.87088589177245,7.238692438368324L189.23460280902665,54.72797778649489z" style="fill:rgb(247,158,158)"/><path d="M-99.89259648232235,105.48412499768436L181.78564872962022,35.73745074984461L-94.2017430639299,101.38755407791757z" style="fill:rgb(93,250,135)"/><path d="M189.23460280902665,54.72797778649489L178.87088589177245,7.238692438368324L180.74348598218387,19.472615505182425z" style="fill:rgb(247,158,158)"/><path d="M181.74079209239363,29.125565407128082L-94.2017430639299,101.38755407791757L181.78564872962022,35.73745074984461z" style="fill:rgb(89,244,159)"/><path d="M189.23460280902665,54.72797778649489L180.74348598218387,19.472615505182425L181.74079209239363,29.125565407128082z" style="fill:rgb(247,158,158)"/><path d="M188.40087011143504,68.67073362172981L-101.7680237652352,134.77180576202838L-93.05421863141369,133.32809846326813z" style="fill:rgb(155,4,143)"/><path d="M189.23460280902665,54.72797778649489L181.74079209239363,29.125565407128082L189.4640808515609,63.86969629730961z" style="fill:rgb(247,158,158)"/><path d="M181.78564872962022,35.73745074984461L-99.89259648232235,105.48412499768436L180.82563683883438,38.90377517422183z" style="fill:rgb(93,250,135)"/><path d="M189.4640808515609,63.86969629730961L181.74079209239363,29.125565407128082L181.78564872962022,35.73745074984461zM189.4640808515609,63.86969629730961L181.78564872962022,35.73745074984461L188.40087011143504,68.67073362172981z" style="fill:rgb(247,158,158)"/><path d="M-101.7680237652352,134.77180576202838L188.40087011143504,68.67073362172981L185.99132945165493,68.6254867204212z" style="fill:rgb(155,4,143)"/><path d="M188.40087011143504,68.67073362172981L181.78564872962022,35.73745074984461L180.82563683883438,38.90377517422183z" style="fill:rgb(247,158,158)"/><path d="M-101.7680237652352,134.77180576202838L182.23540163239645,63.37341626898157L-111.72276902864422,131.3697539808229z" style="fill:rgb(148,8,167)"/><path d="M188.40087011143504,68.67073362172981L180.82563683883438,38.90377517422183L178.84155945418667,38.30830900150966z" style="fill:rgb(247,158,158)"/><path d="M182.23540163239645,63.37341626898157L-101.7680237652352,134.77180576202838L185.99132945165493,68.6254867204212z" style="fill:rgb(148,8,167)"/><path d="M188.40087011143504,68.67073362172981L178.84155945418667,38.30830900150966L185.99132945165493,68.6254867204212z" style="fill:rgb(247,158,158)"/><path d="M-111.72276902864422,131.3697539808229L177.20238931286593,52.76858789810231L-122.56263306591502,122.9434021579864z" style="fill:rgb(140,16,189)"/><path d="M185.99132945165493,68.6254867204212L178.84155945418667,38.30830900150966L175.85650702300785,33.761672123848676z" style="fill:rgb(247,158,158)"/><path d="M177.20238931286593,52.76858789810231L-111.72276902864422,131.3697539808229L182.23540163239645,63.37341626898157z" style="fill:rgb(140,16,189)"/><path d="M171.04377781976046,36.94861136020446L-131.06615318528944,85.7468590132511L-133.83689917211865,109.56882288211457z" style="fill:rgb(83,212,212)"/><path d="M-122.56263306591502,122.9434021579864L171.04377781976046,36.94861136020446L-133.83689917211865,109.56882288211457z" style="fill:rgb(131,29,208)"/><path d="M185.99132945165493,68.6254867204212L175.85650702300785,33.761672123848676L182.23540163239645,63.37341626898157zM182.23540163239645,63.37341626898157L175.85650702300785,33.761672123848676L171.94392400751275,25.241775114422285z" style="fill:rgb(247,158,158)"/><path d="M-131.06615318528944,85.7468590132511L171.04377781976046,36.94861136020446L167.23298554655022,12.929712645414993z" style="fill:rgb(83,212,212)"/><path d="M171.04377781976046,36.94861136020446L-122.56263306591502,122.9434021579864L177.20238931286593,52.76858789810231z" style="fill:rgb(131,29,208)"/><path d="M182.23540163239645,63.37341626898157L171.94392400751275,25.241775114422285L177.20238931286593,52.76858789810231zM177.20238931286593,52.76858789810231L171.94392400751275,25.241775114422285L167.23298554655022,12.929712645414993zM177.20238931286593,52.76858789810231L167.23298554655022,12.929712645414993L171.04377781976046,36.94861136020446z" style="fill:rgb(247,158,158)"/><path d="M105.59571723196726,-168.94096899463202L-129.2818559996441,70.40606507978117L164.78541312715836,-2.4969966691579435z" style="fill:rgb(127,37,217)"/><path d="M161.2455014114046,-24.80857134346337L105.59571723196726,-168.94096899463202L164.78541312715836,-2.4969966691579435z" style="fill:rgb(247,158,158)"/><path d="M-129.2818559996441,70.40606507978117L105.59571723196726,-168.94096899463202L-226.8600027452585,-72.0188974671696z" style="fill:rgb(127,37,217)"/><path d="M105.59571723196726,-168.94096899463202L-221.66951385258463,-94.19156479755621L-226.8600027452585,-72.0188974671696z" style="fill:rgb(83,212,212)"/><path d="M105.59571723196726,-168.94096899463202L161.2455014114046,-24.80857134346337L102.97465267490271,-190.58984786673398z" style="fill:rgb(247,158,158)"/><path d="M-221.66951385258463,-94.19156479755621L105.59571723196726,-168.94096899463202L102.97465267490271,-190.58984786673398z" style="fill:rgb(83,212,212)"/></svg>
