<?xml version="1.0" encoding="UTF-8"?>
<!-- Generated by jsxcad -->
<!DOCTYPE svg PUBLIC "-//W3C//DTD SVG 1.1 Tiny//EN" "http://www.w3.org/Graphics/SVG/1.1/DTD/svg11-tiny.dtd">
<svg viewBox="-250 -250 500 500" width="500" height="500" xmlns="http://www.w3.org/2000/svg"><path d="M-120.05602974523822,62.906379126333L59.80113526425542,-26.901288559020873L-144.60856730552052,26.284956650580177z" style="fill:rgb(127,37,217)"/><path d="M83.45062914047621,67.18539193274377L-117.97559865430702,71.38733540619683L-122.68725458949196,115.81801677924987z" style="fill:rgb(83,212,212)"/><path d="M59.80113526425542,-26.901288559020873L-120.05602974523822,62.906379126333L77.84620769654568,13.581142658129824z" style="fill:rgb(127,37,217)"/><path d="M-117.97559865430702,71.38733540619683L83.45062914047621,67.18539193274377L80.08423501018575,22.476542044211556z" style="fill:rgb(83,212,212)"/><path d="M74.03260732272697,0.6682283563073735L77.84620769654568,13.581142658129824L76.6484998893739,9.144441121413053zM71.28011431375691,-7.13300925748585L77.84620769654568,13.581142658129824L74.03260732272697,0.6682283563073735zM68.4834462466089,-13.985160179287353L77.84620769654568,13.581142658129824L71.28011431375691,-7.13300925748585zM65.73902188816376,-19.635265163936456L77.84620769654568,13.581142658129824L68.4834462466089,-13.985160179287353zM83.45062914047621,67.18539193274377L81.13054677054365,26.95920289415558L80.08423501018575,22.476542044211556zM63.14518597387643,-23.859373031808452L77.84620769654568,13.581142658129824L65.73902188816376,-19.635265163936456z" style="fill:rgb(247,158,158)"/><path d="M-149.6826671707227,27.47453231158582L58.01186328886293,-26.853209211286032L-148.0460809405663,26.782856935056348z" style="fill:rgb(93,250,135)"/><path d="M81.13054677054365,26.95920289415558L83.45062914047621,67.18539193274377L82.84596621964877,35.70064009390266z" style="fill:rgb(247,158,158)"/><path d="M81.86858903786262,68.07829855003914L-127.70912471166129,117.27975641848384L-125.94715940459103,117.08061019313176z" style="fill:rgb(155,4,143)"/><path d="M82.84596621964877,35.70064009390266L83.45062914047621,67.18539193274377L84.12616170329392,43.93381613115974zM60.79953951164371,-26.471583138122245L77.84620769654568,13.581142658129824L63.14518597387643,-23.859373031808452z" style="fill:rgb(247,158,158)"/><path d="M-152.43410891238815,30.5897142462622L57.21947620031941,-26.367165486999713L-149.6826671707227,27.47453231158582z" style="fill:rgb(89,244,159)"/><path d="M84.12616170329392,43.93381613115974L83.45062914047621,67.18539193274377L84.9215837340146,51.36966885279454zM77.84620769654568,13.581142658129824L60.79953951164371,-26.471583138122245L59.80113526425542,-26.901288559020873zM84.9215837340146,51.36966885279454L83.45062914047621,67.18539193274377L85.19617481513522,57.73473434740874z" style="fill:rgb(247,158,158)"/><path d="M-127.70912471166129,117.27975641848384L78.68770747659912,66.1746767718162L-131.57215964624797,115.8885626545058z" style="fill:rgb(148,8,167)"/><path d="M85.19617481513522,57.73473434740874L83.45062914047621,67.18539193274377L84.92930301129374,62.77948631233267z" style="fill:rgb(247,158,158)"/><path d="M55.626735323514914,-18.976340953187442L-152.43410891238815,30.5897142462622L-154.55748231828434,35.36199370023949z" style="fill:rgb(85,234,182)"/><path d="M58.01186328886293,-26.853209211286032L-149.6826671707227,27.47453231158582L57.21947620031941,-26.367165486999713z" style="fill:rgb(93,250,135)"/><path d="M-131.57215964624797,115.8885626545058L76.07626056699866,62.43950818498185L-135.6446933812,112.72238931592068z" style="fill:rgb(140,16,189)"/><path d="M84.92930301129374,62.77948631233267L83.45062914047621,67.18539193274377L84.11794809958784,66.2880561304903z" style="fill:rgb(247,158,158)"/><path d="M-127.70912471166129,117.27975641848384L81.86858903786262,68.07829855003914L80.94872003709389,68.06737006167074z" style="fill:rgb(155,4,143)"/><path d="M55.70185689301348,-12.762612712772551L-154.55748231828434,35.36199370023949L-155.95078959102662,41.633752442829824z" style="fill:rgb(84,220,202)"/><path d="M57.21947620031941,-26.367165486999713L-152.43410891238815,30.5897142462622L56.14430187923725,-23.559690876067382z" style="fill:rgb(89,244,159)"/><path d="M78.68770747659912,66.1746767718162L-127.70912471166129,117.27975641848384L80.94872003709389,68.06737006167074z" style="fill:rgb(148,8,167)"/><path d="M-135.6446933812,112.72238931592068L73.21455540947179,56.973176441890004L-139.7628597399776,107.87218312391201z" style="fill:rgb(131,29,208)"/><path d="M-156.54042991971463,49.17304191602811L55.70185689301348,-12.762612712772551L-155.95078959102662,41.633752442829824z" style="fill:rgb(84,202,220)"/><path d="M-152.43410891238815,30.5897142462622L55.626735323514914,-18.976340953187442L56.14430187923725,-23.559690876067382z" style="fill:rgb(85,234,182)"/><path d="M-139.7628597399776,107.87218312391201L70.21865945005015,49.97128609708609L-143.75385817786906,101.5092621680803z" style="fill:rgb(123,46,225)"/><path d="M-156.28735688004767,57.68043945049156L56.37948137678318,-5.144644459616329L-156.54042991971463,49.17304191602811z" style="fill:rgb(85,182,234)"/><path d="M76.07626056699866,62.43950818498185L-131.57215964624797,115.8885626545058L78.68770747659912,66.1746767718162z" style="fill:rgb(140,16,189)"/><path d="M-143.75385817786906,101.5092621680803L67.2152897179696,41.709249257644856L-147.4447838550694,93.88171023289823z" style="fill:rgb(114,65,238)"/><path d="M59.44146253356665,13.038291246225935L-156.28735688004767,57.68043945049156L-155.19140281866706,66.80164156705575z" style="fill:rgb(89,159,244)"/><path d="M59.73676143144658,3.304435601669975L-48.301281427454704,14.453997642019722L-49.049718840344035,30.810263510928735z" style="fill:rgb(83,212,212)"/><path d="M-154.55748231828434,35.36199370023949L55.70185689301348,-12.762612712772551L55.626735323514914,-18.976340953187442z" style="fill:rgb(84,220,202)"/><path d="M-147.4447838550694,93.88171023289823L64.33510289384792,32.53120116123177L-150.6724249428361,85.3047525465351z" style="fill:rgb(106,87,246)"/><path d="M60.57368795090033,17.93702976730399L-155.19140281866706,66.80164156705575L-154.24189845527926,71.47509550433209z" style="fill:rgb(93,135,250)"/><path d="M64.33510289384792,32.53120116123177L-151.98356658633077,80.72216313639039L-150.6724249428361,85.3047525465351z" style="fill:rgb(99,111,250)"/><path d="M81.86858903786262,68.07829855003914L78.68770747659912,66.1746767718162L80.94872003709389,68.06737006167074z" style="fill:rgb(247,158,158)"/><path d="M73.21455540947179,56.973176441890004L-135.6446933812,112.72238931592068L76.07626056699866,62.43950818498185z" style="fill:rgb(131,29,208)"/><path d="M-48.301281427454704,14.453997642019722L59.73676143144658,3.304435601669975L58.80083598877626,-13.059027845502243z" style="fill:rgb(83,212,212)"/><path d="M-35.18957167315575,54.75252536097803L174.60991748806958,-25.740360235349627L-49.049718840344035,30.810263510928735z" style="fill:rgb(127,37,217)"/><path d="M81.86858903786262,68.07829855003914L76.07626056699866,62.43950818498185L78.68770747659912,66.1746767718162z" style="fill:rgb(247,158,158)"/><path d="M55.70185689301348,-12.762612712772551L-156.54042991971463,49.17304191602811L56.37948137678318,-5.144644459616329z" style="fill:rgb(84,202,220)"/><path d="M70.21865945005015,49.97128609708609L-139.7628597399776,107.87218312391201L73.21455540947179,56.973176441890004z" style="fill:rgb(123,46,225)"/><path d="M57.21947620031941,-26.367165486999713L60.57368795090033,17.93702976730399L58.01186328886293,-26.853209211286032zM81.86858903786262,68.07829855003914L73.21455540947179,56.973176441890004L76.07626056699866,62.43950818498185zM60.57368795090033,17.93702976730399L57.21947620031941,-26.367165486999713L56.14430187923725,-23.559690876067382z" style="fill:rgb(247,158,158)"/><path d="M56.37948137678318,-5.144644459616329L-156.28735688004767,57.68043945049156L57.64156982067581,3.5767314302727335z" style="fill:rgb(85,182,234)"/><path d="M67.2152897179696,41.709249257644856L-143.75385817786906,101.5092621680803L70.21865945005015,49.97128609708609z" style="fill:rgb(114,65,238)"/><path d="M174.60991748806958,-25.740360235349627L-35.18957167315575,54.75252536097803L183.6390363507816,0.920686296730407z" style="fill:rgb(127,37,217)"/><path d="M-156.28735688004767,57.68043945049156L59.44146253356665,13.038291246225935L57.64156982067581,3.5767314302727335z" style="fill:rgb(89,159,244)"/><path d="M81.86858903786262,68.07829855003914L70.21865945005015,49.97128609708609L73.21455540947179,56.973176441890004z" style="fill:rgb(247,158,158)"/><path d="M64.33510289384792,32.53120116123177L-147.4447838550694,93.88171023289823L67.2152897179696,41.709249257644856z" style="fill:rgb(106,87,246)"/><path d="M-155.19140281866706,66.80164156705575L60.57368795090033,17.93702976730399L59.44146253356665,13.038291246225935z" style="fill:rgb(93,135,250)"/><path d="M-151.98356658633077,80.72216313639039L64.33510289384792,32.53120116123177L63.0193491250306,27.67898111655216z" style="fill:rgb(99,111,250)"/><path d="M60.57368795090033,17.93702976730399L56.14430187923725,-23.559690876067382L55.626735323514914,-18.976340953187442zM81.86858903786262,68.07829855003914L67.2152897179696,41.709249257644856L70.21865945005015,49.97128609708609z" style="fill:rgb(247,158,158)"/><path d="M-52.77789203373106,24.370145238537763L172.08792608626078,-33.187246875156994L-52.914540882364,24.134098486559555zM-52.914540882364,24.134098486559555L171.74815125324588,-34.190532678412765L-53.43501079939973,23.235027656625043z" style="fill:rgb(127,37,217)"/><path d="M81.86858903786262,68.07829855003914L64.33510289384792,32.53120116123177L67.2152897179696,41.709249257644856zM64.33510289384792,32.53120116123177L81.86858903786262,68.07829855003914L63.0193491250306,27.67898111655216zM60.57368795090033,17.93702976730399L55.626735323514914,-18.976340953187442L55.70185689301348,-12.762612712772551zM180.75537046080157,-15.442325195414856L174.60991748806958,-25.740360235349627L183.6390363507816,0.920686296730407zM60.57368795090033,17.93702976730399L55.70185689301348,-12.762612712772551L56.37948137678318,-5.144644459616329zM174.60991748806958,-25.740360235349627L180.75537046080157,-15.442325195414856L171.798917534375,-42.08664159500857zM60.57368795090033,17.93702976730399L56.37948137678318,-5.144644459616329L57.64156982067581,3.5767314302727335zM60.57368795090033,17.93702976730399L57.64156982067581,3.5767314302727335L59.44146253356665,13.038291246225935z" style="fill:rgb(247,158,158)"/><path d="M59.73676143144658,3.304435601669975L172.1771246098142,-32.92385792051274L56.61861781086694,-3.4921537013816204z" style="fill:rgb(127,37,217)"/><path d="M169.46835327495793,-48.40749812300007L171.798917534375,-42.08664159500857L169.38693550487517,-49.26196721024878z" style="fill:rgb(247,158,158)"/><path d="M172.08792608626078,-33.187246875156994L-52.77789203373106,24.370145238537763L172.1771246098142,-32.92385792051274zM171.74815125324588,-34.190532678412765L-52.914540882364,24.134098486559555L172.08792608626078,-33.187246875156994z" style="fill:rgb(127,37,217)"/><path d="M171.798917534375,-42.08664159500857L169.46835327495793,-48.40749812300007L170.40535925709293,-42.24230134609939z" style="fill:rgb(247,158,158)"/><path d="M172.1771246098142,-32.92385792051274L59.73676143144658,3.304435601669975L174.60991748806958,-25.740360235349627z" style="fill:rgb(127,37,217)"/><path d="M171.798917534375,-42.08664159500857L170.40535925709293,-42.24230134609939L174.60991748806958,-25.740360235349627zM170.1650631908335,-41.0957527585412L169.38693550487517,-49.26196721024878L165.9462602102302,-59.4975435176885zM171.39494486236947,-35.7311450520047L169.46835327495793,-48.40749812300007L170.1650631908335,-41.0957527585412zM174.60991748806958,-25.740360235349627L170.40535925709293,-42.24230134609939L171.82614291359906,-34.596073032314095zM174.60991748806958,-25.740360235349627L171.82614291359906,-34.596073032314095L172.1771246098142,-32.92385792051274zM171.39494486236947,-35.7311450520047L172.08792608626078,-33.187246875156994L170.40535925709293,-42.24230134609939zM172.1771246098142,-32.92385792051274L171.82614291359906,-34.596073032314095L172.08792608626078,-33.187246875156994zM172.08792608626078,-33.187246875156994L171.39494486236947,-35.7311450520047L171.74815125324588,-34.190532678412765z" style="fill:rgb(247,158,158)"/><path d="M144.51544425762742,-114.60282425784915L-53.43501079939973,23.235027656625043L171.74815125324588,-34.190532678412765zM-53.43501079939973,23.235027656625043L144.51544425762742,-114.60282425784915L-94.98240681420664,-48.534695691626425z" style="fill:rgb(127,37,217)"/><path d="M165.9462602102302,-59.4975435176885L144.51544425762742,-114.60282425784915L171.74815125324588,-34.190532678412765z" style="fill:rgb(247,158,158)"/><path d="M144.51544425762742,-114.60282425784915L-93.42118862597138,-64.84968630783337L-94.98240681420664,-48.534695691626425z" style="fill:rgb(83,212,212)"/><path d="M144.51544425762742,-114.60282425784915L165.9462602102302,-59.4975435176885L141.99859306096675,-130.73879896098077z" style="fill:rgb(247,158,158)"/><path d="M-93.42118862597138,-64.84968630783337L144.51544425762742,-114.60282425784915L141.99859306096675,-130.73879896098077z" style="fill:rgb(83,212,212)"/></svg>
