<?xml version="1.0" encoding="UTF-8"?>
<!-- Generated by jsxcad -->
<!DOCTYPE svg PUBLIC "-//W3C//DTD SVG 1.1 Tiny//EN" "http://www.w3.org/Graphics/SVG/1.1/DTD/svg11-tiny.dtd">
<svg viewBox="-250 -250 500 500" width="500" height="500" xmlns="http://www.w3.org/2000/svg"><path d="M78.12331701294588,50.58273590185171L75.06916128074782,-12.995854207302967L72.93001547371014,-21.988730315138955zM75.06916128074782,-12.995854207302967L78.12331701294588,50.58273590185171L78.23615412154669,1.4522247358139688zM78.23615412154669,1.4522247358139688L78.12331701294588,50.58273590185171L81.08862241998548,15.715149989266457zM81.08862241998548,15.715149989266457L78.12331701294588,50.58273590185171L83.60470793603199,29.70157156364924zM83.60470793603199,29.70157156364924L78.12331701294588,50.58273590185171L85.76258441847129,43.317474467761954zM85.76258441847129,43.317474467761954L78.12331701294588,50.58273590185171L87.54052010821897,56.46559041453244z" style="fill:rgb(247,158,158)"/><path d="M3.1499932047765644,-3.973444910391891L84.11294733226511,134.28215625175065L72.93001547371014,-21.988730315138955z" style="fill:rgb(83,212,212)"/><path d="M87.54052010821897,56.46559041453244L78.12331701294588,50.58273590185171L88.91690430105935,69.04490688927318zM88.91690430105935,69.04490688927318L78.12331701294588,50.58273590185171L89.87045391279837,80.95033156738785zM89.87045391279837,80.95033156738785L78.12331701294588,50.58273590185171L90.38044734955339,92.07258127988777zM78.12331701294588,50.58273590185171L90.42708345619333,102.29822770985507L90.38044734955339,92.07258127988777z" style="fill:rgb(247,158,158)"/><path d="M84.11294733226511,134.28215625175065L3.1499932047765644,-3.973444910391891L3.6235943572934244,151.96092896666855z" style="fill:rgb(83,212,212)"/><path d="M66.48537493712769,33.206628159889085L-10.338241125974049,43.5028202716709L-10.640270722661072,52.11453944170677zM-10.338241125974049,43.5028202716709L66.48537493712769,33.206628159889085L66.1153566021578,24.59794304070687z" style="fill:rgb(83,216,207)"/><path d="M90.42708345619333,102.29822770985507L78.12331701294588,50.58273590185171L84.11294733226511,134.28215625175065z" style="fill:rgb(247,158,158)"/><path d="M65.95557013268413,42.4071268478628L-10.640270722661072,52.11453944170677L-12.203909375328388,61.39610136117119z" style="fill:rgb(85,232,186)"/><path d="M90.42708345619333,102.29822770985507L84.11294733226511,134.28215625175065L89.99195981149542,111.5101961386149z" style="fill:rgb(247,158,158)"/><path d="M-10.640270722661072,52.11453944170677L65.95557013268413,42.4071268478628L66.48537493712769,33.206628159889085z" style="fill:rgb(85,232,186)"/><path d="M66.1153566021578,24.59794304070687L84.11294733226511,134.28215625175065L78.12331701294588,50.58273590185171z" style="fill:rgb(247,158,158)"/><path d="M-14.918207144593175,68.065473166469L65.95557013268413,42.4071268478628L-12.203909375328388,61.39610136117119z" style="fill:rgb(88,243,163)"/><path d="M89.99195981149542,111.5101961386149L84.11294733226511,134.28215625175065L89.05861669396323,119.5884541992624zM84.11294733226511,134.28215625175065L66.1153566021578,24.59794304070687L66.48537493712769,33.206628159889085zM89.05861669396323,119.5884541992624L84.11294733226511,134.28215625175065L87.61329452543464,126.41127335306216z" style="fill:rgb(247,158,158)"/><path d="M65.95557013268413,42.4071268478628L-14.918207144593175,68.065473166469L64.3809732250453,48.91782736767277z" style="fill:rgb(88,243,163)"/><path d="M-18.72887633834234,71.744505180574L64.3809732250453,48.91782736767277L-14.918207144593175,68.065473166469z" style="fill:rgb(93,249,139)"/><path d="M-10.640270722661072,52.11453944170677L72.95195235957279,137.6987016122297L66.48537493712769,33.206628159889085z" style="fill:rgb(83,212,212)"/><path d="M87.61329452543464,126.41127335306216L84.11294733226511,134.28215625175065L85.6457146173243,131.85689629867386z" style="fill:rgb(247,158,158)"/><path d="M64.3809732250453,48.91782736767277L-18.72887633834234,71.744505180574L61.7750996637884,52.36108334948386z" style="fill:rgb(93,249,139)"/><path d="M-12.203909375328388,61.39610136117119L71.71505949107004,137.02452608805484L65.95557013268413,42.4071268478628z" style="fill:rgb(83,212,212)"/><path d="M65.95557013268413,42.4071268478628L72.95195235957279,137.6987016122297L66.48537493712769,33.206628159889085z" style="fill:rgb(247,158,158)"/><path d="M-16.078805150662287,154.35697860552435L64.3809732250453,48.91782736767277L-14.918207144593175,68.065473166469z" style="fill:rgb(83,212,212)"/><path d="M84.11294733226511,134.28215625175065L66.48537493712769,33.206628159889085L72.95195235957279,137.6987016122297zM64.3809732250453,48.91782736767277L71.71505949107004,137.02452608805484L65.95557013268413,42.4071268478628z" style="fill:rgb(247,158,158)"/><path d="M72.95195235957279,137.6987016122297L-10.640270722661072,52.11453944170677L-11.653921998675303,156.26181802689916z" style="fill:rgb(83,212,212)"/><path d="M80.12584684030901,138.14340555325074L-6.893868569098701,157.0406672368422L-2.0829982515589207,156.14037962073232z" style="fill:rgb(154,4,146)"/><path d="M-20.07806753661275,151.9128224462547L61.7750996637884,52.36108334948386L-18.72887633834234,71.744505180574zM71.71505949107004,137.02452608805484L-12.203909375328388,61.39610136117119L-13.247614602530367,155.68541746042138z" style="fill:rgb(83,212,212)"/><path d="M84.11294733226511,134.28215625175065L72.95195235957279,137.6987016122297L83.15002163423587,135.8057787762852zM61.7750996637884,52.36108334948386L69.49599205018337,135.52023457233113L64.3809732250453,48.91782736767277z" style="fill:rgb(247,158,158)"/><path d="M-6.893868569098701,157.0406672368422L80.12584684030901,138.14340555325074L76.57935343963611,138.76374659262214z" style="fill:rgb(154,4,146)"/><path d="M83.15002163423587,135.8057787762852L72.95195235957279,137.6987016122297L80.12584684030901,138.14340555325074z" style="fill:rgb(247,158,158)"/><path d="M-95.85309530519513,-171.06399054808438L-9.828127072320454,-198.6131172906089L-91.40022151434353,-173.55249755840703z" style="fill:rgb(89,245,157)"/><path d="M72.95195235957279,137.6987016122297L65.95557013268413,42.4071268478628L71.71505949107004,137.02452608805484z" style="fill:rgb(247,158,158)"/><path d="M-25.133821075781622,147.92444930710624L58.19468181903127,52.44670820529838L-23.53189676099956,72.1399629574751zM64.3809732250453,48.91782736767277L-16.078805150662287,154.35697860552435L69.49599205018337,135.52023457233113z" style="fill:rgb(83,212,212)"/><path d="M58.19468181903127,52.44670820529838L66.32074727682893,132.82335095158314L61.7750996637884,52.36108334948386z" style="fill:rgb(247,158,158)"/><path d="M-6.893868569098701,157.0406672368422L72.52440730717845,137.57317640592387L-12.214779178650886,156.17004613448387zM72.52440730717845,137.57317640592387L-6.893868569098701,157.0406672368422L76.57935343963611,138.76374659262214z" style="fill:rgb(150,6,159)"/><path d="M80.12584684030901,138.14340555325074L72.95195235957279,137.6987016122297L76.57935343963611,138.76374659262214zM71.71505949107004,137.02452608805484L64.3809732250453,48.91782736767277L69.49599205018337,135.52023457233113z" style="fill:rgb(247,158,158)"/><path d="M-9.828127072320454,-198.6131172906089L-95.85309530519513,-171.06399054808438L-13.026455906189268,-196.48654050564068z" style="fill:rgb(89,245,157)"/><path d="M-6.209505384913727,-198.92442691467477L-4.048364536982529,-127.23374827463005L-3.734697701942071,-198.041309164455z" style="fill:rgb(247,158,158)"/><path d="M61.7750996637884,52.36108334948386L-20.07806753661275,151.9128224462547L66.32074727682893,132.82335095158314z" style="fill:rgb(83,212,212)"/><path d="M69.49599205018337,135.52023457233113L61.7750996637884,52.36108334948386L66.32074727682893,132.82335095158314zM53.745695986300305,49.00548735987322L62.2423386002369,128.50810669703498L58.19468181903127,52.44670820529838zM-4.048364536982529,-127.23374827463005L-6.209505384913727,-198.92442691467477L-9.828127072320454,-198.6131172906089z" style="fill:rgb(247,158,158)"/><path d="M-15.745645192316832,-192.4786228880014L-95.85309530519513,-171.06399054808438L-99.83564958901775,-166.73450230364313zM-95.85309530519513,-171.06399054808438L-15.745645192316832,-192.4786228880014L-13.026455906189268,-196.48654050564068z" style="fill:rgb(87,240,169)"/><path d="M-12.214779178650886,156.17004613448387L67.98362456570733,134.49500911840823L-18.007824697728747,153.4518595523733z" style="fill:rgb(146,9,171)"/><path d="M-29.16879067391229,69.07625328986566L57.35038503890722,122.11927244957461L53.745695986300305,49.00548735987322z" style="fill:rgb(83,212,212)"/><path d="M67.98362456570733,134.49500911840823L-12.214779178650886,156.17004613448387L72.52440730717845,137.57317640592387z" style="fill:rgb(146,9,171)"/><path d="M72.95195235957279,137.6987016122297L71.71505949107004,137.02452608805484L72.52440730717845,137.57317640592387z" style="fill:rgb(247,158,158)"/><path d="M-37.711153877151744,133.737317558649L48.5867647121523,42.02329922261597L-35.42545623335408,62.52864693144537zM58.19468181903127,52.44670820529838L-25.133821075781622,147.92444930710624L62.2423386002369,128.50810669703498z" style="fill:rgb(83,212,212)"/><path d="M-4.048364536982529,-127.23374827463005L-9.828127072320454,-198.6131172906089L-13.026455906189268,-196.48654050564068zM66.32074727682893,132.82335095158314L58.19468181903127,52.44670820529838L62.2423386002369,128.50810669703498zM48.5867647121523,42.02329922261597L57.35038503890722,122.11927244957461L53.745695986300305,49.00548735987322z" style="fill:rgb(247,158,158)"/><path d="M-17.928466295186777,-186.5458177703928L-99.83564958901775,-166.73450230364313L-103.27616360154637,-160.5281858020523z" style="fill:rgb(85,235,181)"/><path d="M57.35038503890722,122.11927244957461L-29.16879067391229,69.07625328986566L-31.082965676200864,141.93164576424917z" style="fill:rgb(83,212,212)"/><path d="M-18.007824697728747,153.4518595523733L62.98931737932373,129.47433091590966L-24.2242456451152,148.8305058268705z" style="fill:rgb(142,13,182)"/><path d="M-99.83564958901775,-166.73450230364313L-17.928466295186777,-186.5458177703928L-15.745645192316832,-192.4786228880014z" style="fill:rgb(85,235,181)"/><path d="M62.98931737932373,129.47433091590966L-18.007824697728747,153.4518595523733L67.98362456570733,134.49500911840823z" style="fill:rgb(142,13,182)"/><path d="M69.49599205018337,135.52023457233113L66.32074727682893,132.82335095158314L67.98362456570733,134.49500911840823zM-4.048364536982529,-127.23374827463005L-13.026455906189268,-196.48654050564068L-15.745645192316832,-192.4786228880014z" style="fill:rgb(247,158,158)"/><path d="M-44.75560908960289,123.4070797713926L42.92820634852045,31.670166824859763L-42.036301681522175,52.65174640173977z" style="fill:rgb(83,212,212)"/><path d="M62.2423386002369,128.50810669703498L53.745695986300305,49.00548735987322L57.35038503890722,122.11927244957461zM42.92820634852045,31.670166824859763L51.79163892653316,113.46925147111754L48.5867647121523,42.02329922261597z" style="fill:rgb(247,158,158)"/><path d="M-19.521058723392724,-178.6718293356923L-103.27616360154637,-160.5281858020523L-106.10510180784458,-152.43616869441075z" style="fill:rgb(84,228,192)"/><path d="M-4.048364536982529,-127.23374827463005L-15.745645192316832,-192.4786228880014L-17.928466295186777,-186.5458177703928z" style="fill:rgb(247,158,158)"/><path d="M-24.2242456451152,148.8305058268705L57.58429861431897,122.48295921042347L-30.803931681009846,142.27625484438315z" style="fill:rgb(138,18,193)"/><path d="M-103.27616360154637,-160.5281858020523L-19.521058723392724,-178.6718293356923L-17.928466295186777,-186.5458177703928z" style="fill:rgb(84,228,192)"/><path d="M66.32074727682893,132.82335095158314L62.2423386002369,128.50810669703498L62.98931737932373,129.47433091590966z" style="fill:rgb(247,158,158)"/><path d="M57.58429861431897,122.48295921042347L-24.2242456451152,148.8305058268705L62.98931737932373,129.47433091590966z" style="fill:rgb(138,18,193)"/><path d="M48.5867647121523,42.02329922261597L-37.711153877151744,133.737317558649L51.79163892653316,113.46925147111754z" style="fill:rgb(83,212,212)"/><path d="M57.35038503890722,122.11927244957461L48.5867647121523,42.02329922261597L51.79163892653316,113.46925147111754zM-4.048364536982529,-127.23374827463005L-17.928466295186777,-186.5458177703928L-19.521058723392724,-178.6718293356923z" style="fill:rgb(247,158,158)"/><path d="M-20.610993674498154,-163.07467892249971L-90.17857511689736,-102.33145683008705L-4.048364536982529,-127.23374827463005z" style="fill:rgb(127,37,217)"/><path d="M-20.474898779919716,-168.87239351405597L-106.10510180784458,-152.43616869441075L-108.25721915048119,-142.481016916564z" style="fill:rgb(84,220,202)"/><path d="M-90.17857511689736,-102.33145683008705L-20.610993674498154,-163.07467892249971L-108.96100412817212,-136.6389465402983z" style="fill:rgb(127,37,217)"/><path d="M-30.803931681009846,142.27625484438315L51.8222967000739,113.5243729131798L-37.675290213180325,133.78990478684156z" style="fill:rgb(134,25,203)"/><path d="M62.2423386002369,128.50810669703498L57.35038503890722,122.11927244957461L57.58429861431897,122.48295921042347z" style="fill:rgb(247,158,158)"/><path d="M-106.10510180784458,-152.43616869441075L-20.474898779919716,-168.87239351405597L-19.521058723392724,-178.6718293356923z" style="fill:rgb(84,220,202)"/><path d="M51.8222967000739,113.5243729131798L-30.803931681009846,142.27625484438315L57.58429861431897,122.48295921042347z" style="fill:rgb(134,25,203)"/><path d="M42.92820634852045,31.670166824859763L-44.75560908960289,123.4070797713926L45.76802936931734,102.63807335957887zM-108.96100412817212,-136.6389465402983L-20.474898779919716,-168.87239351405597L-108.25721915048119,-142.481016916564z" style="fill:rgb(83,212,212)"/><path d="M51.79163892653316,113.46925147111754L42.92820634852045,31.670166824859763L45.76802936931734,102.63807335957887zM-4.048364536982529,-127.23374827463005L-19.521058723392724,-178.6718293356923L-20.610993674498154,-163.07467892249971zM12.401996928896908,-30.8435691208823L45.76802936931734,102.63807335957887L42.92820634852045,31.670166824859763z" style="fill:rgb(247,158,158)"/><path d="M-37.675290213180325,133.78990478684156L45.76802936931734,102.63807335957887L-44.75560908960289,123.4070797713926z" style="fill:rgb(129,33,213)"/><path d="M-20.474898779919716,-168.87239351405597L-108.96100412817212,-136.6389465402983L-20.610993674498154,-163.07467892249971z" style="fill:rgb(83,212,212)"/><path d="M57.35038503890722,122.11927244957461L51.79163892653316,113.46925147111754L51.8222967000739,113.5243729131798zM-20.610993674498154,-163.07467892249971L-19.521058723392724,-178.6718293356923L-20.474898779919716,-168.87239351405597z" style="fill:rgb(247,158,158)"/><path d="M45.76802936931734,102.63807335957887L-37.675290213180325,133.78990478684156L51.8222967000739,113.5243729131798z" style="fill:rgb(129,33,213)"/><path d="M-77.03356853310903,-7.214326752957062L13.27679392941882,40.41784026318422L12.401996928896908,-30.8435691208823z" style="fill:rgb(83,212,212)"/><path d="M13.27679392941882,40.41784026318422L-44.75560908960289,123.4070797713926L45.76802936931734,102.63807335957887z" style="fill:rgb(127,37,217)"/><path d="M45.76802936931734,102.63807335957887L12.401996928896908,-30.8435691208823L13.27679392941882,40.41784026318422z" style="fill:rgb(247,158,158)"/><path d="M13.27679392941882,40.41784026318422L-77.03356853310903,-7.214326752957062L-82.33929384425632,63.99620196342268z" style="fill:rgb(83,212,212)"/><path d="M-44.75560908960289,123.4070797713926L13.27679392941882,40.41784026318422L-82.33929384425632,63.99620196342268z" style="fill:rgb(127,37,217)"/></svg>
