<?xml version="1.0" encoding="UTF-8"?>
<!-- Generated by jsxcad -->
<!DOCTYPE svg PUBLIC "-//W3C//DTD SVG 1.1 Tiny//EN" "http://www.w3.org/Graphics/SVG/1.1/DTD/svg11-tiny.dtd">
<svg viewBox="-250 -250 500 500" width="500" height="500" xmlns="http://www.w3.org/2000/svg"><path d="M200.1211379940291,50.44789807426999L-106.79144145632,114.96059568073372L-107.93838087805341,122.34358851352809z" style="fill:rgb(84,220,202)"/><path d="M200.874563392696,56.28793324703997L-107.93838087805341,122.34358851352809L-109.88827315362991,128.37436885563798z" style="fill:rgb(85,234,182)"/><path d="M-112.59067809525504,132.79841673279728L200.874563392696,56.28793324703997L-109.88827315362991,128.37436885563798z" style="fill:rgb(89,244,159)"/><path d="M-106.79144145632,114.96059568073372L200.1211379940291,50.44789807426999L198.87410127305802,43.07157109646305z" style="fill:rgb(84,220,202)"/><path d="M-115.96532380116642,135.40492718731593L201.0932870622581,60.337155825951044L-112.59067809525504,132.79841673279728z" style="fill:rgb(93,250,135)"/><path d="M-107.93838087805341,122.34358851352809L200.874563392696,56.28793324703997L200.1211379940291,50.44789807426999z" style="fill:rgb(85,234,182)"/><path d="M200.1211379940291,50.44789807426999L205.91165266129406,63.911118288902586L198.87410127305802,43.07157109646305z" style="fill:rgb(247,158,158)"/><path d="M200.874563392696,56.28793324703997L-112.59067809525504,132.79841673279728L201.0932870622581,60.337155825951044z" style="fill:rgb(89,244,159)"/><path d="M205.91165266129406,63.911118288902586L200.1211379940291,50.44789807426999L200.874563392696,56.28793324703997zM205.91165266129406,63.911118288902586L200.874563392696,56.28793324703997L201.0932870622581,60.337155825951044z" style="fill:rgb(247,158,158)"/><path d="M201.0932870622581,60.337155825951044L-115.96532380116642,135.40492718731593L200.75301608828102,62.3899378362181z" style="fill:rgb(93,250,135)"/><path d="M-114.52063777816161,168.220517313055L205.83119589162862,93.43204934699136L-121.49934325730482,166.41388940929016z" style="fill:rgb(148,8,167)"/><path d="M205.91165266129406,63.911118288902586L201.0932870622581,60.337155825951044L200.75301608828102,62.3899378362181z" style="fill:rgb(247,158,158)"/><path d="M119.97108502687139,-214.42165320317685L-123.76793546507483,40.20617753642353L178.7444698654689,-37.01407686671773z" style="fill:rgb(127,37,217)"/><path d="M205.91165266129406,63.911118288902586L198.9332630965739,76.39710026414217L207.96431840439084,75.78686953828642zM207.96431840439084,75.78686953828642L202.76130928566968,86.6609237602915L209.27152378541882,85.39925696685594z" style="fill:rgb(247,158,158)"/><path d="M-121.49934325730482,166.41388940929016L202.76130928566968,86.6609237602915L-128.97587283087273,161.20732108065454z" style="fill:rgb(140,16,189)"/><path d="M209.27152378541882,85.39925696685594L205.83119589162862,93.43204934699136L209.75455475281984,92.31177108872892z" style="fill:rgb(247,158,158)"/><path d="M205.83119589162862,93.43204934699136L-114.52063777816161,168.220517313055L208.0458422770626,96.57672915748151z" style="fill:rgb(148,8,167)"/><path d="M209.75455475281984,92.31177108872892L208.0458422770626,96.57672915748151L209.3557904166576,96.13931201451287z" style="fill:rgb(247,158,158)"/><path d="M198.9332630965739,76.39710026414217L-133.55507177805822,125.71341610321196L-136.6422697889292,152.68532243331077z" style="fill:rgb(83,212,212)"/><path d="M174.80228013384672,-59.159447773199545L119.97108502687139,-214.42165320317685L178.7444698654689,-37.01407686671773zM200.75301608828102,62.3899378362181L198.9332630965739,76.39710026414217L205.91165266129406,63.911118288902586z" style="fill:rgb(247,158,158)"/><path d="M-128.97587283087273,161.20732108065454L198.9332630965739,76.39710026414217L-136.6422697889292,152.68532243331077z" style="fill:rgb(131,29,208)"/><path d="M-123.76793546507483,40.20617753642353L119.97108502687139,-214.42165320317685L-223.35740931036887,-110.92740920996181z" style="fill:rgb(127,37,217)"/><path d="M209.75455475281984,92.31177108872892L205.83119589162862,93.43204934699136L208.0458422770626,96.57672915748151z" style="fill:rgb(247,158,158)"/><path d="M202.76130928566968,86.6609237602915L-121.49934325730482,166.41388940929016L205.83119589162862,93.43204934699136z" style="fill:rgb(140,16,189)"/><path d="M209.27152378541882,85.39925696685594L202.76130928566968,86.6609237602915L205.83119589162862,93.43204934699136z" style="fill:rgb(247,158,158)"/><path d="M-133.55507177805822,125.71341610321196L198.9332630965739,76.39710026414217L194.06239291671218,49.034832524097766z" style="fill:rgb(83,212,212)"/><path d="M207.96431840439084,75.78686953828642L198.9332630965739,76.39710026414217L202.76130928566968,86.6609237602915zM199.84925919352102,62.30401998345805L198.9332630965739,76.39710026414217L200.75301608828102,62.3899378362181z" style="fill:rgb(247,158,158)"/><path d="M198.9332630965739,76.39710026414217L-128.97587283087273,161.20732108065454L202.76130928566968,86.6609237602915z" style="fill:rgb(131,29,208)"/><path d="M198.40014881993588,60.015081219349454L198.9332630965739,76.39710026414217L199.84925919352102,62.30401998345805zM196.44850811368661,55.5497515478677L198.9332630965739,76.39710026414217L198.40014881993588,60.015081219349454zM198.9332630965739,76.39710026414217L196.44850811368661,55.5497515478677L194.06239291671218,49.034832524097766z" style="fill:rgb(247,158,158)"/><path d="M119.97108502687139,-214.42165320317685L-218.10164002197584,-132.81547281817157L-223.35740931036887,-110.92740920996181z" style="fill:rgb(83,212,212)"/><path d="M119.97108502687139,-214.42165320317685L174.80228013384672,-59.159447773199545L116.90104756181269,-235.5766296602458z" style="fill:rgb(247,158,158)"/><path d="M-218.10164002197584,-132.81547281817157L119.97108502687139,-214.42165320317685L116.90104756181269,-235.5766296602458z" style="fill:rgb(83,212,212)"/></svg>
