<?xml version="1.0" encoding="UTF-8"?>
<!-- Generated by jsxcad -->
<!DOCTYPE svg PUBLIC "-//W3C//DTD SVG 1.1 Tiny//EN" "http://www.w3.org/Graphics/SVG/1.1/DTD/svg11-tiny.dtd">
<svg viewBox="-250 -250 500 500" width="500" height="500" xmlns="http://www.w3.org/2000/svg"><path d="M28.09257997374384,36.741400394197804L-126.93611987174464,71.4236103444291L-127.62031229643836,75.14015824977464z" style="fill:rgb(84,220,202)"/><path d="M27.666714233390017,39.630387708948234L-127.62031229643836,75.14015824977464L-128.73212171292724,78.09143004062626z" style="fill:rgb(85,234,182)"/><path d="M-130.23574407458648,80.1567961897914L27.666714233390017,39.630387708948234L-128.73212171292724,78.09143004062626z" style="fill:rgb(89,244,159)"/><path d="M-126.93611987174464,71.4236103444291L28.09257997374384,36.741400394197804L28.163736408407118,33.03563322925693z" style="fill:rgb(84,220,202)"/><path d="M-132.07979910313315,81.24501894274741L26.897087899356787,41.58328910109817L-130.23574407458648,80.1567961897914z" style="fill:rgb(93,250,135)"/><path d="M-127.62031229643836,75.14015824977464L27.666714233390017,39.630387708948234L28.09257997374384,36.741400394197804z" style="fill:rgb(85,234,182)"/><path d="M27.915036337189708,50.94732961677235L-132.83840108659783,89.48713442644947L-130.09247465191928,89.36272374354708z" style="fill:rgb(155,4,143)"/><path d="M27.666714233390017,39.630387708948234L-130.23574407458648,80.1567961897914L26.897087899356787,41.58328910109817z" style="fill:rgb(89,244,159)"/><path d="M28.09257997374384,36.741400394197804L30.909707575208124,38.48817458678823L28.163736408407118,33.03563322925693zM30.909707575208124,38.48817458678823L27.666714233390017,39.630387708948234L30.832269675511125,43.31456219254711zM30.909707575208124,38.48817458678823L28.09257997374384,36.741400394197804L27.666714233390017,39.630387708948234z" style="fill:rgb(247,158,158)"/><path d="M-132.83840108659783,89.48713442644947L24.059056853929988,49.25812568654551L-135.84828997707663,88.23860777199498z" style="fill:rgb(148,8,167)"/><path d="M26.897087899356787,41.58328910109817L-132.07979910313315,81.24501894274741L25.80769629318697,42.51188939009575z" style="fill:rgb(93,250,135)"/><path d="M30.832269675511125,43.31456219254711L27.666714233390017,39.630387708948234L26.897087899356787,41.58328910109817z" style="fill:rgb(247,158,158)"/><path d="M-135.84828997707663,88.23860777199498L21.74260946351603,46.3169521646475L-139.00663140608475,85.64118480432671z" style="fill:rgb(140,16,189)"/><path d="M-132.83840108659783,89.48713442644947L27.915036337189708,50.94732961677235L26.142343813464606,50.81305776941373z" style="fill:rgb(155,4,143)"/><path d="M30.832269675511125,43.31456219254711L26.897087899356787,41.58328910109817L25.80769629318697,42.51188939009575z" style="fill:rgb(247,158,158)"/><path d="M-142.18739126542368,81.77718141616165L19.16740260259759,35.57350328058037L-141.36646927778762,75.29413464936685z" style="fill:rgb(83,212,212)"/><path d="M30.832269675511125,43.31456219254711L21.74260946351603,46.3169521646475L30.296862831132742,47.09960186701591z" style="fill:rgb(247,158,158)"/><path d="M24.059056853929988,49.25812568654551L-132.83840108659783,89.48713442644947L26.142343813464606,50.81305776941373z" style="fill:rgb(148,8,167)"/><path d="M-139.00663140608475,85.64118480432671L19.28331191233352,42.08447367824762L-142.18739126542368,81.77718141616165z" style="fill:rgb(131,29,208)"/><path d="M30.296862831132742,47.09960186701591L24.059056853929988,49.25812568654551L29.315016890456924,49.684269895815895zM29.315016890456924,49.684269895815895L26.142343813464606,50.81305776941373L27.915036337189708,50.94732961677235zM25.80769629318697,42.51188939009575L21.74260946351603,46.3169521646475L30.832269675511125,43.31456219254711z" style="fill:rgb(247,158,158)"/><path d="M21.74260946351603,46.3169521646475L-135.84828997707663,88.23860777199498L24.059056853929988,49.25812568654551z" style="fill:rgb(140,16,189)"/><path d="M29.315016890456924,49.684269895815895L24.059056853929988,49.25812568654551L26.142343813464606,50.81305776941373zM30.296862831132742,47.09960186701591L21.74260946351603,46.3169521646475L24.059056853929988,49.25812568654551z" style="fill:rgb(247,158,158)"/><path d="M19.28331191233352,42.08447367824762L-139.00663140608475,85.64118480432671L21.74260946351603,46.3169521646475z" style="fill:rgb(131,29,208)"/><path d="M24.435481149766005,42.36432368039552L21.74260946351603,46.3169521646475L25.80769629318697,42.51188939009575z" style="fill:rgb(247,158,158)"/><path d="M19.16740260259759,35.57350328058037L-142.18739126542368,81.77718141616165L19.28331191233352,42.08447367824762z" style="fill:rgb(83,212,212)"/><path d="M22.82970140029659,41.12948104547619L19.28331191233352,42.08447367824762L24.435481149766005,42.36432368039552zM24.435481149766005,42.36432368039552L19.28331191233352,42.08447367824762L21.74260946351603,46.3169521646475zM21.050605434706302,38.84002051785522L19.28331191233352,42.08447367824762L22.82970140029659,41.12948104547619zM19.28331191233352,42.08447367824762L21.050605434706302,38.84002051785522L19.16740260259759,35.57350328058037z" style="fill:rgb(247,158,158)"/><path d="M148.89562162747862,-108.19407598346469L7.944522380894213,23.43299918818972L178.77480183155257,-19.46378524162723z" style="fill:rgb(127,37,217)"/><path d="M176.59881062107186,-31.899024181345755L148.89562162747862,-108.19407598346469L178.77480183155257,-19.46378524162723z" style="fill:rgb(247,158,158)"/><path d="M7.944522380894213,23.43299918818972L148.89562162747862,-108.19407598346469L-34.29258581951005,-57.99217484251852z" style="fill:rgb(127,37,217)"/><path d="M148.89562162747862,-108.19407598346469L176.59881062107186,-31.899024181345755L146.93374599090745,-120.48643933099929z" style="fill:rgb(247,158,158)"/><path d="M148.89562162747862,-108.19407598346469L-33.860221113478765,-70.38752026860445L-34.29258581951005,-57.99217484251852zM-33.860221113478765,-70.38752026860445L148.89562162747862,-108.19407598346469L146.93374599090745,-120.48643933099929z" style="fill:rgb(83,212,212)"/></svg>
