<?xml version="1.0" encoding="UTF-8"?>
<!-- Generated by jsxcad -->
<!DOCTYPE svg PUBLIC "-//W3C//DTD SVG 1.1 Tiny//EN" "http://www.w3.org/Graphics/SVG/1.1/DTD/svg11-tiny.dtd">
<svg viewBox="-250 -250 500 500" width="500" height="500" xmlns="http://www.w3.org/2000/svg"><path d="M80.90805149399728,35.68150927651185L-118.86773369291384,79.80013111429263L-119.69714969528384,84.56919251339147z" style="fill:rgb(84,220,202)"/><path d="M80.67869684826336,39.394471342706304L-119.69714969528384,84.56919251339147L-121.06741172090977,88.38142850747128z" style="fill:rgb(85,234,182)"/><path d="M-122.93692872119925,91.07900102300766L80.67869684826336,39.394471342706304L-121.06741172090977,88.38142850747128z" style="fill:rgb(89,244,159)"/><path d="M-118.86773369291384,79.80013111429263L80.90805149399728,35.68150927651185L80.72060888103917,30.92817983937233z" style="fill:rgb(84,220,202)"/><path d="M-125.24426545276532,92.5392439256984L80.03354826215076,41.91082133923618L-122.93692872119925,91.07900102300766z" style="fill:rgb(93,250,135)"/><path d="M-119.69714969528384,84.56919251339147L80.67869684826336,39.394471342706304L80.90805149399728,35.68150927651185z" style="fill:rgb(85,234,182)"/><path d="M81.7275436071289,54.0056581980999L-126.15490718470937,103.18209442887806L-122.70444185122965,102.90861831992805z" style="fill:rgb(155,4,143)"/><path d="M80.72060888103917,30.92817983937233L84.1412346082813,44.1282248974732L83.87721014958312,37.9341692648373z" style="fill:rgb(247,158,158)"/><path d="M80.67869684826336,39.394471342706304L-122.93692872119925,91.07900102300766L80.03354826215076,41.91082133923618z" style="fill:rgb(89,244,159)"/><path d="M84.1412346082813,44.1282248974732L80.72060888103917,30.92817983937233L83.8694421019818,49.003600103592355zM83.8694421019818,49.003600103592355L80.72060888103917,30.92817983937233L80.90805149399728,35.68150927651185z" style="fill:rgb(247,158,158)"/><path d="M-126.15490718470937,103.18209442887806L77.67111514465834,51.86921554992057L-129.95791247252163,101.69336757981503z" style="fill:rgb(148,8,167)"/><path d="M80.03354826215076,41.91082133923618L-125.24426545276532,92.5392439256984L78.98884536747103,43.1121364759193z" style="fill:rgb(93,250,135)"/><path d="M83.8694421019818,49.003600103592355L80.90805149399728,35.68150927651185L80.67869684826336,39.394471342706304zM83.8694421019818,49.003600103592355L80.67869684826336,39.394471342706304L83.05929172875133,52.3509443300686z" style="fill:rgb(247,158,158)"/><path d="M-129.95791247252163,101.69336757981503L75.0856482916801,48.06976868459067L-133.9680111005538,98.45996610082464z" style="fill:rgb(140,16,189)"/><path d="M-126.15490718470937,103.18209442887806L81.7275436071289,54.0056581980999L79.91179301259035,53.85908038931523z" style="fill:rgb(155,4,143)"/><path d="M83.05929172875133,52.3509443300686L80.67869684826336,39.394471342706304L80.03354826215076,41.91082133923618zM83.05929172875133,52.3509443300686L80.03354826215076,41.91082133923618L81.7275436071289,54.0056581980999z" style="fill:rgb(247,158,158)"/><path d="M77.67111514465834,51.86921554992057L-126.15490718470937,103.18209442887806L79.91179301259035,53.85908038931523z" style="fill:rgb(148,8,167)"/><path d="M-133.9680111005538,98.45996610082464L72.2546251810376,42.57590700124684L-138.0239560821114,93.57667591566948z" style="fill:rgb(131,29,208)"/><path d="M-154.585412406211,35.556524201573986L54.97304201544317,-26.217814052001177L-154.01426837046662,28.188681071510132z" style="fill:rgb(84,202,220)"/><path d="M81.7275436071289,54.0056581980999L80.03354826215076,41.91082133923618L78.98884536747103,43.1121364759193z" style="fill:rgb(247,158,158)"/><path d="M-138.0239560821114,93.57667591566948L69.29283067589373,35.58535753398434L-141.95575570088405,87.21706440773828z" style="fill:rgb(123,46,225)"/><path d="M81.7275436071289,54.0056581980999L78.98884536747103,43.1121364759193L77.57675657944021,42.92538673954142z" style="fill:rgb(247,158,158)"/><path d="M-154.32696176263715,43.89764481510255L55.63733063638695,-18.781652713470216L-154.585412406211,35.556524201573986z" style="fill:rgb(85,182,234)"/><path d="M75.0856482916801,48.06976868459067L-129.95791247252163,101.69336757981503L77.67111514465834,51.86921554992057z" style="fill:rgb(140,16,189)"/><path d="M81.7275436071289,54.0056581980999L77.57675657944021,42.92538673954142L79.91179301259035,53.85908038931523z" style="fill:rgb(247,158,158)"/><path d="M-141.95575570088405,87.21706440773828L66.32541979072163,27.373607564420418L-145.59332892651463,79.62960620761115z" style="fill:rgb(114,65,238)"/><path d="M-48.02713453954785,14.793526310427035L58.49534414116673,-18.40016365314658L-48.05685233958048,9.112271342279776z" style="fill:rgb(84,202,220)"/><path d="M58.65306388102802,-0.9434382411740002L-154.32696176263715,43.89764481510255L-153.23927535363103,52.86531307642301z" style="fill:rgb(89,159,244)"/><path d="M-145.59332892651463,79.62960620761115L63.4813062227869,18.282725894156442L-148.7761060844127,71.12794144811045z" style="fill:rgb(106,87,246)"/><path d="M63.4813062227869,18.282725894156442L-151.3626325840436,62.07547347742008L-148.7761060844127,71.12794144811045z" style="fill:rgb(99,111,250)"/><path d="M60.88579376920856,8.704124291299413L-153.23927535363103,52.86531307642301L-151.3626325840436,62.07547347742008z" style="fill:rgb(93,135,250)"/><path d="M79.91179301259035,53.85908038931523L77.57675657944021,42.92538673954142L75.84535809954843,41.32971024635325z" style="fill:rgb(247,158,158)"/><path d="M-48.05685233958048,9.112271342279776L54.97304201544317,-26.217814052001177L-52.25241174780762,1.6966132230329591z" style="fill:rgb(127,37,217)"/><path d="M-47.71073429244754,18.396143086157718L59.01814293375593,-12.693921790226481L-48.02713453954785,14.793526310427035z" style="fill:rgb(85,182,234)"/><path d="M72.2546251810376,42.57590700124684L-133.9680111005538,98.45996610082464L75.0856482916801,48.06976868459067z" style="fill:rgb(131,29,208)"/><path d="M79.91179301259035,53.85908038931523L75.84535809954843,41.32971024635325L77.67111514465834,51.86921554992057zM77.67111514465834,51.86921554992057L75.84535809954843,41.32971024635325L73.85783645570554,38.36155592538781z" style="fill:rgb(247,158,158)"/><path d="M54.97304201544317,-26.217814052001177L-48.05685233958048,9.112271342279776L58.49534414116673,-18.40016365314658z" style="fill:rgb(127,37,217)"/><path d="M54.97304201544317,-26.217814052001177L-154.585412406211,35.556524201573986L55.63733063638695,-18.781652713470216z" style="fill:rgb(84,202,220)"/><path d="M69.29283067589373,35.58535753398434L-138.0239560821114,93.57667591566948L72.2546251810376,42.57590700124684z" style="fill:rgb(123,46,225)"/><path d="M58.49534414116673,-18.40016365314658L-48.02713453954785,14.793526310427035L59.01814293375593,-12.693921790226481z" style="fill:rgb(84,202,220)"/><path d="M59.01814293375593,-12.693921790226481L-47.71073429244754,18.396143086157718L59.55298747398262,-9.048582507893009z" style="fill:rgb(85,182,234)"/><path d="M77.67111514465834,51.86921554992057L73.85783645570554,38.36155592538781L75.0856482916801,48.06976868459067z" style="fill:rgb(247,158,158)"/><path d="M55.63733063638695,-18.781652713470216L-154.32696176263715,43.89764481510255L56.87930631498235,-10.238501315842523z" style="fill:rgb(85,182,234)"/><path d="M66.32541979072163,27.373607564420418L-141.95575570088405,87.21706440773828L69.29283067589373,35.58535753398434z" style="fill:rgb(114,65,238)"/><path d="M75.0856482916801,48.06976868459067L73.85783645570554,38.36155592538781L71.69065513513296,34.11734786570907z" style="fill:rgb(247,158,158)"/><path d="M-154.32696176263715,43.89764481510255L58.65306388102802,-0.9434382411740002L56.87930631498235,-10.238501315842523z" style="fill:rgb(89,159,244)"/><path d="M63.4813062227869,18.282725894156442L-145.59332892651463,79.62960620761115L66.32541979072163,27.373607564420418z" style="fill:rgb(106,87,246)"/><path d="M75.0856482916801,48.06976868459067L71.69065513513296,34.11734786570907L69.43072882350651,28.752804391926617zM54.97304201544317,-26.217814052001177L59.01814293375593,-12.693921790226481L58.49534414116673,-18.40016365314658z" style="fill:rgb(247,158,158)"/><path d="M-153.23927535363103,52.86531307642301L60.88579376920856,8.704124291299413L58.65306388102802,-0.9434382411740002z" style="fill:rgb(93,135,250)"/><path d="M-151.3626325840436,62.07547347742008L63.4813062227869,18.282725894156442L60.88579376920856,8.704124291299413z" style="fill:rgb(99,111,250)"/><path d="M75.0856482916801,48.06976868459067L69.43072882350651,28.752804391926617L72.2546251810376,42.57590700124684z" style="fill:rgb(247,158,158)"/><path d="M-52.10084508594324,10.701833847126002L169.75711573127774,-46.838944911381276L-52.23558542343106,10.46568553385808z" style="fill:rgb(127,37,217)"/><path d="M59.01814293375593,-12.693921790226481L54.97304201544317,-26.217814052001177L59.975996807452,-6.165455548132072z" style="fill:rgb(247,158,158)"/><path d="M-52.23558542343106,10.46568553385808L169.41980076864027,-47.84120087318322L-52.74877906059285,9.566236409337325z" style="fill:rgb(127,37,217)"/><path d="M72.2546251810376,42.57590700124684L69.43072882350651,28.752804391926617L67.17156606280534,22.478450552498224zM59.975996807452,-6.165455548132072L54.97304201544317,-26.217814052001177L55.63733063638695,-18.781652713470216zM72.2546251810376,42.57590700124684L67.17156606280534,22.478450552498224L65.00867106231185,15.551023002140546zM59.975996807452,-6.165455548132072L55.63733063638695,-18.781652713470216L61.33306005537757,0.9185334396423084zM61.33306005537757,0.9185334396423084L55.63733063638695,-18.781652713470216L63.03442730638212,8.26121750248924zM72.2546251810376,42.57590700124684L65.00867106231185,15.551023002140546L69.29283067589373,35.58535753398434zM69.29283067589373,35.58535753398434L65.00867106231185,15.551023002140546L63.03442730638212,8.26121750248924zM69.29283067589373,35.58535753398434L63.03442730638212,8.26121750248924L55.63733063638695,-18.781652713470216zM69.29283067589373,35.58535753398434L55.63733063638695,-18.781652713470216L56.87930631498235,-10.238501315842523z" style="fill:rgb(247,158,158)"/><path d="M59.55298747398262,-9.048582507893009L171.88177599628014,-40.52602112792387L58.47067369435208,-11.434836791002768z" style="fill:rgb(127,37,217)"/><path d="M69.29283067589373,35.58535753398434L56.87930631498235,-10.238501315842523L66.32541979072163,27.373607564420418zM66.32541979072163,27.373607564420418L56.87930631498235,-10.238501315842523L58.65306388102802,-0.9434382411740002zM66.32541979072163,27.373607564420418L58.65306388102802,-0.9434382411740002L63.4813062227869,18.282725894156442zM63.4813062227869,18.282725894156442L58.65306388102802,-0.9434382411740002L60.88579376920856,8.704124291299413z" style="fill:rgb(247,158,158)"/><path d="M58.47067369435208,-11.434836791002768L169.84566991599348,-46.57582205594836L55.87266786018617,-17.162849708717435zM169.75711573127774,-46.838944911381276L-52.10084508594324,10.701833847126002L169.84566991599348,-46.57582205594836zM169.41980076864027,-47.84120087318322L-52.23558542343106,10.46568553385808L169.75711573127774,-46.838944911381276zM171.88177599628014,-40.52602112792387L59.55298747398262,-9.048582507893009L172.7298312452812,-38.006251194969195z" style="fill:rgb(127,37,217)"/><path d="M171.95263093086038,-41.693622182892476L170.88192278791809,-47.41907120895884L170.51562959215576,-48.51137235428086z" style="fill:rgb(247,158,158)"/><path d="M169.84566991599348,-46.57582205594836L58.47067369435208,-11.434836791002768L171.88177599628014,-40.52602112792387z" style="fill:rgb(127,37,217)"/><path d="M170.51562959215576,-48.51137235428086L171.88177599628014,-40.52602112792387L172.7298312452812,-38.006251194969195zM171.88177599628014,-40.52602112792387L170.51562959215576,-48.51137235428086L168.2312003388918,-55.32355635509008zM168.11423392095477,-55.67231391661415L171.88177599628014,-40.52602112792387L168.2312003388918,-55.32355635509008zM178.42060267219293,-28.69068103384936L141.1790115369861,-135.9932799392972L179.81416900385875,-20.783058772838388zM171.88177599628014,-40.52602112792387L168.11423392095477,-55.67231391661415L169.501528699658,-48.21316361342938zM169.41980076864027,-47.84120087318322L168.11423392095477,-55.67231391661415L166.5557220998409,-60.31983386631291zM171.88177599628014,-40.52602112792387L169.501528699658,-48.21316361342938L169.84566991599348,-46.57582205594836zM168.11423392095477,-55.67231391661415L169.41980076864027,-47.84120087318322L169.75711573127774,-46.838944911381276zM169.75711573127774,-46.838944911381276L169.84566991599348,-46.57582205594836L169.501528699658,-48.21316361342938z" style="fill:rgb(247,158,158)"/><path d="M142.41196206750635,-128.0886177180725L-52.74877906059285,9.566236409337325L169.41980076864027,-47.84120087318322zM-52.74877906059285,9.566236409337325L142.41196206750635,-128.0886177180725L-93.6778176952389,-62.16786970558243z" style="fill:rgb(127,37,217)"/><path d="M141.1790115369861,-135.9932799392972L-92.15884890770354,-78.04134703354202L-92.91212535108505,-70.1694786614341z" style="fill:rgb(83,212,212)"/><path d="M166.5557220998409,-60.31983386631291L142.41196206750635,-128.0886177180725L169.41980076864027,-47.84120087318322zM141.1790115369861,-135.9932799392972L178.42060267219293,-28.69068103384936L139.9672255488438,-143.76226060005064z" style="fill:rgb(247,158,158)"/><path d="M142.41196206750635,-128.0886177180725L-92.91212535108505,-70.1694786614341L-93.6778176952389,-62.16786970558243zM-92.15884890770354,-78.04134703354202L141.1790115369861,-135.9932799392972L139.9672255488438,-143.76226060005064z" style="fill:rgb(83,212,212)"/><path d="M142.41196206750635,-128.0886177180725L166.5557220998409,-60.31983386631291L141.1790115369861,-135.9932799392972z" style="fill:rgb(247,158,158)"/><path d="M-92.91212535108505,-70.1694786614341L142.41196206750635,-128.0886177180725L141.1790115369861,-135.9932799392972z" style="fill:rgb(83,212,212)"/></svg>
