<?xml version="1.0" encoding="UTF-8"?>
<!-- Generated by jsxcad -->
<!DOCTYPE svg PUBLIC "-//W3C//DTD SVG 1.1 Tiny//EN" "http://www.w3.org/Graphics/SVG/1.1/DTD/svg11-tiny.dtd">
<svg viewBox="-250 -250 500 500" width="500" height="500" xmlns="http://www.w3.org/2000/svg"><path d="M83.46483421309162,31.35059583701411L-112.12616116864118,70.30009973037689L-113.68858791581154,79.57407960522568z" style="fill:rgb(84,220,202)"/><path d="M83.04255907792414,38.62856761568981L-113.68858791581154,79.57407960522568L-116.32711443095042,87.04775889117307z" style="fill:rgb(85,234,182)"/><path d="M-112.12616116864118,70.30009973037689L83.46483421309162,31.35059583701411L83.07247314866012,22.11360212034468z" style="fill:rgb(84,220,202)"/><path d="M-119.98388273922465,92.39235892053712L83.04255907792414,38.62856761568981L-116.32711443095042,87.04775889117307z" style="fill:rgb(89,244,159)"/><path d="M83.07247314866012,22.11360212034468L89.75049550172636,47.887943595737994L89.16417700999162,35.822702952815035z" style="fill:rgb(247,158,158)"/><path d="M-113.68858791581154,79.57407960522568L83.04255907792414,38.62856761568981L83.46483421309162,31.35059583701411z" style="fill:rgb(85,234,182)"/><path d="M89.75049550172636,47.887943595737994L83.07247314866012,22.11360212034468L89.30216141048813,57.53611389931783z" style="fill:rgb(247,158,158)"/><path d="M-124.56067956819739,95.33008617229251L81.79156919137606,43.61791366106785L-119.98388273922465,92.39235892053712z" style="fill:rgb(93,250,135)"/><path d="M89.30216141048813,57.53611389931783L83.07247314866012,22.11360212034468L83.46483421309162,31.35059583701411z" style="fill:rgb(247,158,158)"/><path d="M83.04255907792414,38.62856761568981L-119.98388273922465,92.39235892053712L81.79156919137606,43.61791366106785z" style="fill:rgb(89,244,159)"/><path d="M89.30216141048813,57.53611389931783L83.46483421309162,31.35059583701411L83.04255907792414,38.62856761568981z" style="fill:rgb(247,158,158)"/><path d="M85.20608031957242,67.84198373204488L-126.3861542458164,116.85485340980992L-119.47863811779158,116.07872071016442z" style="fill:rgb(155,4,143)"/><path d="M89.30216141048813,57.53611389931783L83.04255907792414,38.62856761568981L87.7868747122408,64.31903370428537z" style="fill:rgb(247,158,158)"/><path d="M81.79156919137606,43.61791366106785L-124.56067956819739,95.33008617229251L79.72593654189514,46.044017050182696z" style="fill:rgb(93,250,135)"/><path d="M87.7868747122408,64.31903370428537L83.04255907792414,38.62856761568981L81.79156919137606,43.61791366106785zM87.7868747122408,64.31903370428537L81.79156919137606,43.61791366106785L85.20608031957242,67.84198373204488z" style="fill:rgb(247,158,158)"/><path d="M-126.3861542458164,116.85485340980992L85.20608031957242,67.84198373204488L81.60286980971141,67.79421538182687z" style="fill:rgb(155,4,143)"/><path d="M-126.3861542458164,116.85485340980992L77.06913506212837,63.98471994765559L-134.12782214578098,114.0519268355747z" style="fill:rgb(148,8,167)"/><path d="M85.20608031957242,67.84198373204488L81.79156919137606,43.61791366106785L79.72593654189514,46.044017050182696zM85.20608031957242,67.84198373204488L79.72593654189514,46.044017050182696L76.89224083648881,45.70817347828345z" style="fill:rgb(247,158,158)"/><path d="M77.06913506212837,63.98471994765559L-126.3861542458164,116.85485340980992L81.60286980971141,67.79421538182687z" style="fill:rgb(148,8,167)"/><path d="M85.20608031957242,67.84198373204488L76.89224083648881,45.70817347828345L81.60286980971141,67.79421538182687z" style="fill:rgb(247,158,158)"/><path d="M-134.12782214578098,114.0519268355747L71.75053734399677,56.37953895567954L-142.41485064822433,107.61152892272473z" style="fill:rgb(140,16,189)"/><path d="M-150.90370459294115,97.6524354850235L64.7930275946733,27.74304552086489L-148.61302659977525,80.36622016442787z" style="fill:rgb(83,212,212)"/><path d="M81.60286980971141,67.79421538182687L76.89224083648881,45.70817347828345L73.37294090285108,42.510108839909265z" style="fill:rgb(247,158,158)"/><path d="M71.75053734399677,56.37953895567954L-134.12782214578098,114.0519268355747L77.06913506212837,63.98471994765559z" style="fill:rgb(140,16,189)"/><path d="M-142.41485064822433,107.61152892272473L65.84729642293595,45.13481479337472L-150.90370459294115,97.6524354850235z" style="fill:rgb(131,29,208)"/><path d="M81.60286980971141,67.79421538182687L73.37294090285108,42.510108839909265L77.06913506212837,63.98471994765559zM77.06913506212837,63.98471994765559L73.37294090285108,42.510108839909265L69.28789280689641,36.46951741013349z" style="fill:rgb(247,158,158)"/><path d="M65.84729642293595,45.13481479337472L-142.41485064822433,107.61152892272473L71.75053734399677,56.37953895567954z" style="fill:rgb(131,29,208)"/><path d="M77.06913506212837,63.98471994765559L69.28789280689641,36.46951741013349L71.75053734399677,56.37953895567954z" style="fill:rgb(247,158,158)"/><path d="M64.7930275946733,27.74304552086489L-150.90370459294115,97.6524354850235L65.84729642293595,45.13481479337472z" style="fill:rgb(83,212,212)"/><path d="M71.75053734399677,56.37953895567954L69.28789280689641,36.46951741013349L64.7930275946733,27.74304552086489z" style="fill:rgb(247,158,158)"/><path d="M132.73037281649928,-166.1142111011914L-42.86060187270542,8.413458358304483L172.461802615191,-47.14953733784788z" style="fill:rgb(127,37,217)"/><path d="M71.75053734399677,56.37953895567954L64.7930275946733,27.74304552086489L65.84729642293595,45.13481479337472zM169.79134498385505,-62.54046513249621L132.73037281649928,-166.1142111011914L172.461802615191,-47.14953733784788z" style="fill:rgb(247,158,158)"/><path d="M-42.86060187270542,8.413458358304483L132.73037281649928,-166.1142111011914L-102.55959844121165,-98.12375787742083z" style="fill:rgb(127,37,217)"/><path d="M132.73037281649928,-166.1142111011914L169.79134498385505,-62.54046513249621L130.45439632468043,-181.1182003842918z" style="fill:rgb(247,158,158)"/><path d="M132.73037281649928,-166.1142111011914L-100.89837851173637,-113.39798185180317L-102.55959844121165,-98.12375787742083zM-100.89837851173637,-113.39798185180317L132.73037281649928,-166.1142111011914L130.45439632468043,-181.1182003842918z" style="fill:rgb(83,212,212)"/></svg>
