<?xml version="1.0" encoding="UTF-8"?>
<!-- Generated by jsxcad -->
<!DOCTYPE svg PUBLIC "-//W3C//DTD SVG 1.1 Tiny//EN" "http://www.w3.org/Graphics/SVG/1.1/DTD/svg11-tiny.dtd">
<svg viewBox="-250 -250 500 500" width="500" height="500" xmlns="http://www.w3.org/2000/svg"><path d="M193.83992060101312,16.18688087626773L-103.69825882687672,81.47515756462195L-104.78910405492726,88.39776270271568z" style="fill:rgb(84,220,202)"/><path d="M194.513073033651,21.534262396038L-104.78910405492726,88.39776270271568L-106.65535473348507,93.96788393339706z" style="fill:rgb(85,234,182)"/><path d="M-109.24821068830718,97.94851457916431L194.513073033651,21.534262396038L-106.65535473348507,93.96788393339706z" style="fill:rgb(89,244,159)"/><path d="M-103.69825882687672,81.47515756462195L193.83992060101312,16.18688087626773L192.68076932909634,9.307809000238047z" style="fill:rgb(84,220,202)"/><path d="M-112.49009846457524,100.14716540022557L194.6626469603965,25.114431281874335L-109.24821068830718,97.94851457916431z" style="fill:rgb(93,250,135)"/><path d="M-104.78910405492726,88.39776270271568L194.513073033651,21.534262396038L193.83992060101312,16.18688087626773z" style="fill:rgb(85,234,182)"/><path d="M192.68076932909634,9.307809000238047L201.54030843944378,41.28575782975002L199.62891365056325,30.194707387425936z" style="fill:rgb(247,158,158)"/><path d="M202.58603960278717,59.364883459917735L-111.03307611341577,131.39188300678538L-105.0519206680369,130.4749405463467z" style="fill:rgb(155,4,143)"/><path d="M194.513073033651,21.534262396038L-109.24821068830718,97.94851457916431L194.6626469603965,25.114431281874335z" style="fill:rgb(89,244,159)"/><path d="M201.54030843944378,41.28575782975002L192.68076932909634,9.307809000238047L202.7152381656405,50.10654402043234zM202.7152381656405,50.10654402043234L192.68076932909634,9.307809000238047L193.83992060101312,16.18688087626773z" style="fill:rgb(247,158,158)"/><path d="M194.6626469603965,25.114431281874335L-112.49009846457524,100.14716540022557L194.26777777549168,26.741636845429323z" style="fill:rgb(93,250,135)"/><path d="M202.7152381656405,50.10654402043234L193.83992060101312,16.18688087626773L203.08092648469741,56.25019422857504z" style="fill:rgb(247,158,158)"/><path d="M-111.03307611341577,131.39188300678538L198.9571885554836,55.54228039244241L-117.74440137848921,129.0951050216771z" style="fill:rgb(148,8,167)"/><path d="M203.08092648469741,56.25019422857504L193.83992060101312,16.18688087626773L194.513073033651,21.534262396038zM203.08092648469741,56.25019422857504L194.513073033651,21.534262396038L194.6626469603965,25.114431281874335z" style="fill:rgb(247,158,158)"/><path d="M-111.03307611341577,131.39188300678538L202.58603960278717,59.364883459917735L201.20742560107573,59.18102049186402z" style="fill:rgb(155,4,143)"/><path d="M-117.74440137848921,129.0951050216771L195.88910102967267,48.43705001949751L-124.93506132575673,123.53854146542967z" style="fill:rgb(140,16,189)"/><path d="M203.08092648469741,56.25019422857504L194.6626469603965,25.114431281874335L202.58603960278717,59.364883459917735zM202.58603960278717,59.364883459917735L194.6626469603965,25.114431281874335L194.26777777549168,26.741636845429323z" style="fill:rgb(247,158,158)"/><path d="M198.9571885554836,55.54228039244241L-111.03307611341577,131.39188300678538L201.20742560107573,59.18102049186402z" style="fill:rgb(148,8,167)"/><path d="M192.10255070970052,38.02535794146143L-129.41293144306456,89.52479099911753L-132.30952675929495,114.831470043995z" style="fill:rgb(83,212,212)"/><path d="M202.58603960278717,59.364883459917735L194.26777777549168,26.741636845429323L193.32709967240368,26.293446255607385z" style="fill:rgb(247,158,158)"/><path d="M-124.93506132575673,123.53854146542967L192.10255070970052,38.02535794146143L-132.30952675929495,114.831470043995z" style="fill:rgb(131,29,208)"/><path d="M202.58603960278717,59.364883459917735L193.32709967240368,26.293446255607385L201.20742560107573,59.18102049186402z" style="fill:rgb(247,158,158)"/><path d="M195.88910102967267,48.43705001949751L-117.74440137848921,129.0951050216771L198.9571885554836,55.54228039244241z" style="fill:rgb(140,16,189)"/><path d="M201.20742560107573,59.18102049186402L193.32709967240368,26.293446255607385L191.86130294560652,23.724125608623627z" style="fill:rgb(247,158,158)"/><path d="M-129.41293144306456,89.52479099911753L192.10255070970052,38.02535794146143L187.55661412511142,12.488418759214769z" style="fill:rgb(83,212,212)"/><path d="M201.20742560107573,59.18102049186402L191.86130294560652,23.724125608623627L198.9571885554836,55.54228039244241z" style="fill:rgb(247,158,158)"/><path d="M192.10255070970052,38.02535794146143L-124.93506132575673,123.53854146542967L195.88910102967267,48.43705001949751z" style="fill:rgb(131,29,208)"/><path d="M198.9571885554836,55.54228039244241L191.86130294560652,23.724125608623627L189.91491919007981,19.076234346702464zM198.9571885554836,55.54228039244241L189.91491919007981,19.076234346702464L187.55661412511142,12.488418759214769zM198.9571885554836,55.54228039244241L187.55661412511142,12.488418759214769L195.88910102967267,48.43705001949751zM195.88910102967267,48.43705001949751L187.55661412511142,12.488418759214769L192.10255070970052,38.02535794146143z" style="fill:rgb(247,158,158)"/><path d="M130.54156241846775,-141.58277141762085L-132.30952675929495,114.831470043995L192.10255070970052,38.02535794146143z" style="fill:rgb(127,37,217)"/><path d="M187.55661412511142,12.488418759214769L130.54156241846775,-141.58277141762085L192.10255070970052,38.02535794146143z" style="fill:rgb(247,158,158)"/><path d="M-132.30952675929495,114.831470043995L130.54156241846775,-141.58277141762085L-241.28527671250768,-36.26541216122136z" style="fill:rgb(127,37,217)"/><path d="M130.54156241846775,-141.58277141762085L-235.16349694043421,-61.760042740942076L-241.28527671250768,-36.26541216122136z" style="fill:rgb(83,212,212)"/><path d="M130.54156241846775,-141.58277141762085L187.55661412511142,12.488418759214769L126.9148750774261,-166.5734965570689z" style="fill:rgb(247,158,158)"/><path d="M-235.16349694043421,-61.760042740942076L130.54156241846775,-141.58277141762085L126.9148750774261,-166.5734965570689z" style="fill:rgb(83,212,212)"/></svg>
