<?xml version="1.0" encoding="UTF-8"?>
<!-- Generated by jsxcad -->
<!DOCTYPE svg PUBLIC "-//W3C//DTD SVG 1.1 Tiny//EN" "http://www.w3.org/Graphics/SVG/1.1/DTD/svg11-tiny.dtd">
<svg viewBox="-250 -250 500 500" width="500" height="500" xmlns="http://www.w3.org/2000/svg"><path d="M191.7161299458754,4.602620649907021L-102.64889582457718,70.1152188109751L-103.72102331746068,76.88498998320303z" style="fill:rgb(84,220,202)"/><path d="M192.36297822275375,9.788003340793834L-103.72102331746068,76.88498998320303L-105.55927500003831,82.30281391919522z" style="fill:rgb(85,234,182)"/><path d="M-108.11540656303265,86.13744907939193L192.36297822275375,9.788003340793834L-105.55927500003831,82.30281391919522z" style="fill:rgb(89,244,159)"/><path d="M-102.64889582457718,70.1152188109751L191.7161299458754,4.602620649907021L190.58598517472743,-2.1121846636331996z" style="fill:rgb(84,220,202)"/><path d="M-111.31275786713279,88.20250273624623L192.4901096131525,13.21472813516183L-108.11540656303265,86.13744907939193z" style="fill:rgb(93,250,135)"/><path d="M-103.72102331746068,76.88498998320303L192.36297822275375,9.788003340793834L191.7161299458754,4.602620649907021z" style="fill:rgb(85,234,182)"/><path d="M190.58598517472743,-2.1121846636331996L199.3667440210899,29.612306624592918L197.50203801006512,18.78080024476768z" style="fill:rgb(247,158,158)"/><path d="M200.3000660362283,46.947088968973034L-109.8523480049628,118.92340165077756L-103.95144392016621,118.2018726346354z" style="fill:rgb(155,4,143)"/><path d="M192.36297822275375,9.788003340793834L-108.11540656303265,86.13744907939193L192.4901096131525,13.21472813516183z" style="fill:rgb(89,244,159)"/><path d="M199.3667440210899,29.612306624592918L190.58598517472743,-2.1121846636331996L200.49826349900792,38.172491573827436zM200.49826349900792,38.172491573827436L190.58598517472743,-2.1121846636331996L191.7161299458754,4.602620649907021z" style="fill:rgb(247,158,158)"/><path d="M192.4901096131525,13.21472813516183L-111.31275786713279,88.20250273624623L192.07778183938981,14.703584537087767z" style="fill:rgb(93,250,135)"/><path d="M200.49826349900792,38.172491573827436L191.7161299458754,4.602620649907021L200.82579270535322,44.064361486120696z" style="fill:rgb(247,158,158)"/><path d="M-109.8523480049628,118.92340165077756L196.6394113245557,42.76660873806723L-116.47394343252623,116.46856590797712z" style="fill:rgb(148,8,167)"/><path d="M200.82579270535322,44.064361486120696L191.7161299458754,4.602620649907021L192.36297822275375,9.788003340793834zM200.82579270535322,44.064361486120696L192.36297822275375,9.788003340793834L192.4901096131525,13.21472813516183z" style="fill:rgb(247,158,158)"/><path d="M-109.8523480049628,118.92340165077756L200.3000660362283,46.947088968973034L198.8999686610463,46.56275459104286z" style="fill:rgb(155,4,143)"/><path d="M-116.47394343252623,116.46856590797712L193.57352243852338,35.55758309197171L-123.56868374294018,110.80104861071663z" style="fill:rgb(140,16,189)"/><path d="M200.82579270535322,44.064361486120696L192.4901096131525,13.21472813516183L200.3000660362283,46.947088968973034zM200.3000660362283,46.947088968973034L192.4901096131525,13.21472813516183L192.07778183938981,14.703584537087767z" style="fill:rgb(247,158,158)"/><path d="M196.6394113245557,42.76660873806723L-109.8523480049628,118.92340165077756L198.8999686610463,46.56275459104286z" style="fill:rgb(148,8,167)"/><path d="M189.80236647534954,25.104002830844067L-128.01167955610833,77.28247871419386L-130.84520049188026,102.03809080970296z" style="fill:rgb(83,212,212)"/><path d="M200.3000660362283,46.947088968973034L192.07778183938981,14.703584537087767L191.12564243886888,14.13861886517664z" style="fill:rgb(247,158,158)"/><path d="M-123.56868374294018,110.80104861071663L189.80236647534954,25.104002830844067L-130.84520049188026,102.03809080970296z" style="fill:rgb(131,29,208)"/><path d="M200.3000660362283,46.947088968973034L191.12564243886888,14.13861886517664L198.8999686610463,46.56275459104286z" style="fill:rgb(247,158,158)"/><path d="M193.57352243852338,35.55758309197171L-116.47394343252623,116.46856590797712L196.6394113245557,42.76660873806723z" style="fill:rgb(140,16,189)"/><path d="M198.8999686610463,46.56275459104286L191.12564243886888,14.13861886517664L189.65519793737275,11.480121014369024z" style="fill:rgb(247,158,158)"/><path d="M-128.01167955610833,77.28247871419386L189.80236647534954,25.104002830844067L185.36338418796697,0.16788110890510696z" style="fill:rgb(83,212,212)"/><path d="M198.8999686610463,46.56275459104286L189.65519793737275,11.480121014369024L196.6394113245557,42.76660873806723z" style="fill:rgb(247,158,158)"/><path d="M189.80236647534954,25.104002830844067L-123.56868374294018,110.80104861071663L193.57352243852338,35.55758309197171z" style="fill:rgb(131,29,208)"/><path d="M196.6394113245557,42.76660873806723L189.65519793737275,11.480121014369024L187.7115043626591,6.7757528114677354zM196.6394113245557,42.76660873806723L187.7115043626591,6.7757528114677354L185.36338418796697,0.16788110890510696zM196.6394113245557,42.76660873806723L185.36338418796697,0.16788110890510696L193.57352243852338,35.55758309197171zM193.57352243852338,35.55758309197171L185.36338418796697,0.16788110890510696L189.80236647534954,25.104002830844067z" style="fill:rgb(247,158,158)"/><path d="M132.4337574810386,-128.54404723715348L-133.80700005047603,127.914439581945L194.45916972598673,51.263741467679566z" style="fill:rgb(127,37,217)"/><path d="M189.80236647534954,25.104002830844067L132.4337574810386,-128.54404723715348L194.45916972598673,51.263741467679566z" style="fill:rgb(247,158,158)"/><path d="M-133.80700005047603,127.914439581945L132.4337574810386,-128.54404723715348L-244.46726523343546,-23.013775222777568z" style="fill:rgb(127,37,217)"/><path d="M132.4337574810386,-128.54404723715348L-238.18505885024064,-49.176513386983544L-244.46726523343546,-23.013775222777568z" style="fill:rgb(83,212,212)"/><path d="M132.4337574810386,-128.54404723715348L189.80236647534954,25.104002830844067L128.70267489051304,-154.25415123396772z" style="fill:rgb(247,158,158)"/><path d="M-238.18505885024064,-49.176513386983544L132.4337574810386,-128.54404723715348L128.70267489051304,-154.25415123396772z" style="fill:rgb(83,212,212)"/></svg>
