<?xml version="1.0" encoding="UTF-8"?>
<!-- Generated by jsxcad -->
<!DOCTYPE svg PUBLIC "-//W3C//DTD SVG 1.1 Tiny//EN" "http://www.w3.org/Graphics/SVG/1.1/DTD/svg11-tiny.dtd">
<svg viewBox="-250 -250 500 500" width="500" height="500" xmlns="http://www.w3.org/2000/svg"><path d="M-173.78236172220684,-145.17706805487887L-40.31010375788926,90.09728859575509L-41.53027153990908,75.92228473246237z" style="fill:rgb(246,167,149)"/><path d="M-174.48089328362144,-131.3848478081353L-35.52758919954948,103.25660687830158L-40.31010375788926,90.09728859575509z" style="fill:rgb(242,183,130)"/><path d="M-51.285650822685376,133.66989956261514L-203.46877548754023,-100.79358506359944L-61.66689772474354,118.24434757254335z" style="fill:rgb(21,57,142)"/><path d="M-36.422978825333914,146.45036545490382L-193.81383915660265,-86.63799713164468L-51.285650822685376,133.66989956261514z" style="fill:rgb(34,46,160)"/><path d="M178.10422654594504,22.967620293297987L89.45129573541074,-206.88889193779102L178.74875391483914,42.72958985188129z" style="fill:rgb(246,149,167)"/><path d="M-17.483400831535487,155.88988879267933L-178.4289652365029,-75.57878614652452L-36.422978825333914,146.45036545490382z" style="fill:rgb(51,38,177)"/><path d="M-40.31010375788926,90.09728859575509L-173.78236172220684,-145.17706805487887L-174.48089328362144,-131.3848478081353z" style="fill:rgb(246,167,149)"/><path d="M178.74875391483914,42.72958985188129L81.96329984818787,-185.63736354904205L174.18796893056003,63.59650559265272z" style="fill:rgb(242,130,183)"/><path d="M-35.52758919954948,103.25660687830158L-174.48089328362144,-131.3848478081353L-170.90005780256584,-118.96234938825955z" style="fill:rgb(242,183,130)"/><path d="M-132.01878019419644,-65.43062279201813L-17.483400831535487,155.88988879267933L4.875608592983053,161.39582734634809z" style="fill:rgb(71,33,192)"/><path d="M174.18796893056003,63.59650559265272L68.06291386646687,-163.32276076955506L164.38554628578984,84.66119066664449z" style="fill:rgb(233,112,197)"/><path d="M-102.64062901255859,-67.29842838222454L4.875608592983053,161.39582734634809L29.74857921619627,162.54030705154136z" style="fill:rgb(92,32,204)"/><path d="M-203.46877548754023,-100.79358506359944L-51.285650822685376,133.66989956261514L-193.81383915660265,-86.63799713164468z" style="fill:rgb(21,57,142)"/><path d="M164.38554628578984,84.66119066664449L48.12028312236968,-141.0070846464276L149.59765446347458,104.92892242671722z" style="fill:rgb(220,94,208)"/><path d="M-70.81781203387732,-74.03280275988357L29.74857921619627,162.54030705154136L56.017100772627394,159.11716678824226z" style="fill:rgb(115,34,214)"/><path d="M149.59765446347458,104.92892242671722L22.926604669866062,-119.84234841135635L130.39140335999954,123.38454145341905z" style="fill:rgb(203,77,216)"/><path d="M22.926604669866062,-119.84234841135635L107.62923804195113,139.07317180807365L130.39140335999954,123.38454145341905z" style="fill:rgb(183,62,221)"/><path d="M-38.14096466292781,-85.4327926648478L56.017100772627394,159.11716678824226L82.41656718131313,151.18308524180603z" style="fill:rgb(139,40,220)"/><path d="M-6.329032836861083,-100.97409266498997L82.41656718131313,151.18308524180603L107.62923804195113,139.07317180807365z" style="fill:rgb(162,50,222)"/><path d="M-207.38621066223297,-117.28940535723518L-173.78236172220684,-145.17706805487887L-205.79060290161203,-135.36882861762325z" style="fill:rgb(83,212,212)"/><path d="M-193.81383915660265,-86.63799713164468L-36.422978825333914,146.45036545490382L-178.4289652365029,-75.57878614652452z" style="fill:rgb(34,46,160)"/><path d="M89.45129573541074,-206.88889193779102L178.10422654594504,22.967620293297987L90.54836745187373,-226.1756221991695z" style="fill:rgb(246,149,167)"/><path d="M-173.78236172220684,-145.17706805487887L-207.38621066223297,-117.28940535723518L-203.46877548754023,-100.79358506359944z" style="fill:rgb(83,212,212)"/><path d="M-178.4289652365029,-75.57878614652452L-17.483400831535487,155.88988879267933L-157.61602301900547,-68.31712097812924z" style="fill:rgb(51,38,177)"/><path d="M81.96329984818787,-185.63736354904205L178.74875391483914,42.72958985188129L89.45129573541074,-206.88889193779102z" style="fill:rgb(242,130,183)"/><path d="M-173.78236172220684,-145.17706805487887L-203.46877548754023,-100.79358506359944L-193.81383915660265,-86.63799713164468zM-173.78236172220684,-145.17706805487887L-178.4289652365029,-75.57878614652452L-174.48089328362144,-131.3848478081353z" style="fill:rgb(83,212,212)"/><path d="M-17.483400831535487,155.88988879267933L-132.01878019419644,-65.43062279201813L-157.61602301900547,-68.31712097812924z" style="fill:rgb(71,33,192)"/><path d="M68.06291386646687,-163.32276076955506L174.18796893056003,63.59650559265272L81.96329984818787,-185.63736354904205z" style="fill:rgb(233,112,197)"/><path d="M-174.48089328362144,-131.3848478081353L-178.4289652365029,-75.57878614652452L-170.90005780256584,-118.96234938825955zM-173.78236172220684,-145.17706805487887L-193.81383915660265,-86.63799713164468L-178.4289652365029,-75.57878614652452z" style="fill:rgb(83,212,212)"/><path d="M4.875608592983053,161.39582734634809L-102.64062901255859,-67.29842838222454L-132.01878019419644,-65.43062279201813z" style="fill:rgb(92,32,204)"/><path d="M-170.90005780256584,-118.96234938825955L-178.4289652365029,-75.57878614652452L-162.95544536518182,-108.4668480892646z" style="fill:rgb(83,212,212)"/><path d="M48.12028312236968,-141.0070846464276L164.38554628578984,84.66119066664449L68.06291386646687,-163.32276076955506z" style="fill:rgb(220,94,208)"/><path d="M29.74857921619627,162.54030705154136L-70.81781203387732,-74.03280275988357L-102.64062901255859,-67.29842838222454z" style="fill:rgb(115,34,214)"/><path d="M22.926604669866062,-119.84234841135635L149.59765446347458,104.92892242671722L48.12028312236968,-141.0070846464276z" style="fill:rgb(203,77,216)"/><path d="M56.017100772627394,159.11716678824226L-38.14096466292781,-85.4327926648478L-70.81781203387732,-74.03280275988357z" style="fill:rgb(139,40,220)"/><path d="M-162.95544536518182,-108.4668480892646L-157.61602301900547,-68.31712097812924L-150.74392658326215,-100.43129495576882z" style="fill:rgb(83,212,212)"/><path d="M107.62923804195113,139.07317180807365L22.926604669866062,-119.84234841135635L-6.329032836861083,-100.97409266498997z" style="fill:rgb(183,62,221)"/><path d="M82.41656718131313,151.18308524180603L-6.329032836861083,-100.97409266498997L-38.14096466292781,-85.4327926648478z" style="fill:rgb(162,50,222)"/><path d="M-162.95544536518182,-108.4668480892646L-178.4289652365029,-75.57878614652452L-157.61602301900547,-68.31712097812924zM54.04217151020032,-214.98906953167278L68.06291386646687,-163.32276076955506L90.54836745187373,-226.1756221991695zM52.60826518877784,-200.175166379757L68.06291386646687,-163.32276076955506L54.04217151020032,-214.98906953167278zM90.54836745187373,-226.1756221991695L81.96329984818787,-185.63736354904205L89.45129573541074,-206.88889193779102zM-150.74392658326215,-100.43129495576882L-132.01878019419644,-65.43062279201813L-134.57534698673274,-95.32691236607575zM46.40568318234515,-184.03170904960342L68.06291386646687,-163.32276076955506L52.60826518877784,-200.175166379757zM-150.74392658326215,-100.43129495576882L-157.61602301900547,-68.31712097812924L-132.01878019419644,-65.43062279201813zM90.54836745187373,-226.1756221991695L68.06291386646687,-163.32276076955506L81.96329984818787,-185.63736354904205zM-134.57534698673274,-95.32691236607575L-132.01878019419644,-65.43062279201813L-114.99192278189027,-93.52005805160096zM35.50372171190181,-167.23492511390322L48.12028312236968,-141.0070846464276L46.40568318234515,-184.03170904960342zM-114.99192278189027,-93.52005805160096L-102.64062901255859,-67.29842838222454L-92.7675212637551,-95.22882246802449zM-114.99192278189027,-93.52005805160096L-132.01878019419644,-65.43062279201813L-102.64062901255859,-67.29842838222454zM46.40568318234515,-184.03170904960342L48.12028312236968,-141.0070846464276L68.06291386646687,-163.32276076955506zM20.237449586335128,-150.55121477796183L22.926604669866062,-119.84234841135635L35.50372171190181,-167.23492511390322zM-92.7675212637551,-95.22882246802449L-70.81781203387732,-74.03280275988357L-68.88067449181976,-100.4862332364939zM1.2154422968160281,-134.78968232825778L22.926604669866062,-119.84234841135635L20.237449586335128,-150.55121477796183zM-92.7675212637551,-95.22882246802449L-102.64062901255859,-67.29842838222454L-70.81781203387732,-74.03280275988357zM35.50372171190181,-167.23492511390322L22.926604669866062,-119.84234841135635L48.12028312236968,-141.0070846464276zM-68.88067449181976,-100.4862332364939L-38.14096466292781,-85.4327926648478L-44.459571013270796,-109.11816537093235zM-20.7025955198502,-120.74208789957694L-6.329032836861083,-100.97409266498997L1.2154422968160281,-134.78968232825778zM-44.459571013270796,-109.11816537093235L-38.14096466292781,-85.4327926648478L-20.7025955198502,-120.74208789957694zM-68.88067449181976,-100.4862332364939L-70.81781203387732,-74.03280275988357L-38.14096466292781,-85.4327926648478zM1.2154422968160281,-134.78968232825778L-6.329032836861083,-100.97409266498997L22.926604669866062,-119.84234841135635zM-20.7025955198502,-120.74208789957694L-38.14096466292781,-85.4327926648478L-6.329032836861083,-100.97409266498997z" style="fill:rgb(83,212,212)"/></svg>
