<?xml version="1.0" encoding="UTF-8"?>
<!-- Generated by jsxcad -->
<!DOCTYPE svg PUBLIC "-//W3C//DTD SVG 1.1 Tiny//EN" "http://www.w3.org/Graphics/SVG/1.1/DTD/svg11-tiny.dtd">
<svg viewBox="-250 -250 500 500" width="500" height="500" xmlns="http://www.w3.org/2000/svg"><path d="M172.7468023276297,-52.60935716025287L-133.57959601706963,14.158723471923322L-136.30346498992387,27.534234131011708z" style="fill:rgb(84,220,202)"/><path d="M173.76595494238623,-42.64410884054942L-136.30346498992387,27.534234131011708L-140.77275334668448,38.160340267561736z" style="fill:rgb(85,234,182)"/><path d="M-133.57959601706963,14.158723471923322L172.7468023276297,-52.60935716025287L170.6893739943343,-65.7301257733988z" style="fill:rgb(84,220,202)"/><path d="M-146.92623590547237,45.526801090132594L173.76595494238623,-42.64410884054942L-140.77275334668448,38.160340267561736z" style="fill:rgb(89,244,159)"/><path d="M170.6893739943343,-65.7301257733988L181.12289894859623,-25.307244389337935L178.33195497836942,-42.568892958255105z" style="fill:rgb(247,158,158)"/><path d="M-136.30346498992387,27.534234131011708L173.76595494238623,-42.64410884054942L172.7468023276297,-52.60935716025287z" style="fill:rgb(85,234,182)"/><path d="M181.12289894859623,-25.307244389337935L170.6893739943343,-65.7301257733988L182.6365796403222,-11.83475464570354z" style="fill:rgb(247,158,158)"/><path d="M-154.637263065808,49.175402956655105L173.65280217884987,-36.35376715025007L-146.92623590547237,45.526801090132594z" style="fill:rgb(93,250,135)"/><path d="M182.6365796403222,-11.83475464570354L170.6893739943343,-65.7301257733988L172.7468023276297,-52.60935716025287z" style="fill:rgb(247,158,158)"/><path d="M173.76595494238623,-42.64410884054942L-146.92623590547237,45.526801090132594L173.65280217884987,-36.35376715025007z" style="fill:rgb(89,244,159)"/><path d="M182.6365796403222,-11.83475464570354L172.7468023276297,-52.60935716025287L173.76595494238623,-42.64410884054942z" style="fill:rgb(247,158,158)"/><path d="M181.28028203699628,0.8903622874153264L-158.36365119472688,81.92221453392497L-146.70798684860142,81.62284311990706z" style="fill:rgb(155,4,143)"/><path d="M182.6365796403222,-11.83475464570354L173.76595494238623,-42.64410884054942L182.7289682166103,-2.8723493805067375z" style="fill:rgb(247,158,158)"/><path d="M173.65280217884987,-36.35376715025007L-154.637263065808,49.175402956655105L172.34010593117134,-34.198322123770986z" style="fill:rgb(93,250,135)"/><path d="M182.7289682166103,-2.8723493805067375L173.76595494238623,-42.64410884054942L173.65280217884987,-36.35376715025007zM182.7289682166103,-2.8723493805067375L173.65280217884987,-36.35376715025007L181.28028203699628,0.8903622874153264zM181.28028203699628,0.8903622874153264L173.65280217884987,-36.35376715025007L172.34010593117134,-34.198322123770986z" style="fill:rgb(247,158,158)"/><path d="M-158.36365119472688,81.92221453392497L181.28028203699628,0.8903622874153264L178.21260316869967,-1.1465872914415567z" style="fill:rgb(155,4,143)"/><path d="M-158.36365119472688,81.92221453392497L173.51168136889456,-9.413849569495621L-171.56832082898762,76.52462734648361z" style="fill:rgb(148,8,167)"/><path d="M181.28028203699628,0.8903622874153264L172.34010593117134,-34.198322123770986L169.79904562616306,-36.536651720152946z" style="fill:rgb(247,158,158)"/><path d="M173.51168136889456,-9.413849569495621L-158.36365119472688,81.92221453392497L178.21260316869967,-1.1465872914415567z" style="fill:rgb(148,8,167)"/><path d="M181.28028203699628,0.8903622874153264L169.79904562616306,-36.536651720152946L178.21260316869967,-1.1465872914415567z" style="fill:rgb(247,158,158)"/><path d="M-171.56832082898762,76.52462734648361L167.250290989297,-24.077164788236836L-185.84863649845045,65.21775030896407z" style="fill:rgb(140,16,189)"/><path d="M178.21260316869967,-1.1465872914415567L169.79904562616306,-36.536651720152946L166.05189292736137,-43.575547757577155z" style="fill:rgb(247,158,158)"/><path d="M167.250290989297,-24.077164788236836L-171.56832082898762,76.52462734648361L173.51168136889456,-9.413849569495621z" style="fill:rgb(140,16,189)"/><path d="M159.6086248350923,-44.93924643897745L-195.694749993858,21.492624859186655L-200.59573706799586,48.104654860562555z" style="fill:rgb(83,212,212)"/><path d="M-185.84863649845045,65.21775030896407L159.6086248350923,-44.93924643897745L-200.59573706799586,48.104654860562555z" style="fill:rgb(131,29,208)"/><path d="M178.21260316869967,-1.1465872914415567L166.05189292736137,-43.575547757577155L173.51168136889456,-9.413849569495621zM173.51168136889456,-9.413849569495621L166.05189292736137,-43.575547757577155L161.1842043632538,-55.31472854090204z" style="fill:rgb(247,158,158)"/><path d="M-195.694749993858,21.492624859186655L159.6086248350923,-44.93924643897745L155.35354531415624,-71.49679482561433z" style="fill:rgb(83,212,212)"/><path d="M159.6086248350923,-44.93924643897745L-185.84863649845045,65.21775030896407L167.250290989297,-24.077164788236836z" style="fill:rgb(131,29,208)"/><path d="M173.51168136889456,-9.413849569495621L161.1842043632538,-55.31472854090204L167.250290989297,-24.077164788236836zM167.250290989297,-24.077164788236836L161.1842043632538,-55.31472854090204L155.35354531415624,-71.49679482561433zM167.250290989297,-24.077164788236836L155.35354531415624,-71.49679482561433L159.6086248350923,-44.93924643897745z" style="fill:rgb(247,158,158)"/></svg>
