<?xml version="1.0" encoding="UTF-8"?>
<!-- Generated by jsxcad -->
<!DOCTYPE svg PUBLIC "-//W3C//DTD SVG 1.1 Tiny//EN" "http://www.w3.org/Graphics/SVG/1.1/DTD/svg11-tiny.dtd">
<svg viewBox="-250 -250 500 500" width="500" height="500" xmlns="http://www.w3.org/2000/svg"><path d="M-55.5101822946498,-86.45285220370911L-43.818203099286315,-68.22156277989824L-28.320346867694436,-99.74330329812086zM-28.320346867694436,-99.74330329812086L-22.351721576126415,-78.7000708686003L-2.7700146011501135e-14,-109.6779574682112zM-80.87052360345393,-70.1570732192536L-81.6808445756064,-40.33780953711792L-55.5101822946498,-86.45285220370911zM-28.320346867694436,-99.74330329812086L-43.818203099286315,-68.22156277989824L-22.351721576126415,-78.7000708686003zM-55.5101822946498,-86.45285220370911L-63.789905451268254,-55.31723949613001L-43.818203099286315,-68.22156277989824zM-2.7700146011501135e-14,-109.6779574682112L22.601409502317278,-91.21403890353169L28.722388076813647,-115.94508920359432zM-103.72020459242813,-51.24997217623912L-96.92859758840501,-23.68506605423939L-80.87052360345393,-70.1570732192536zM-2.7700146011501135e-14,-109.6779574682112L-22.351721576126415,-78.7000708686003L-1.9743169014494265e-14,-86.44959653882998zM-55.5101822946498,-86.45285220370911L-81.6808445756064,-40.33780953711792L-63.789905451268254,-55.31723949613001zM-2.7700146011501135e-14,-109.6779574682112L-1.9743169014494265e-14,-86.44959653882998L22.601409502317278,-91.21403890353169zM-80.87052360345393,-70.1570732192536L-96.92859758840501,-23.68506605423939L-81.6808445756064,-40.33780953711792zM28.722388076813647,-115.94508920359432L44.788197797946516,-92.78798011471477L57.076134318454905,-118.27353829468687zM28.722388076813647,-115.94508920359432L22.601409502317278,-91.21403890353169L44.788197797946516,-92.78798011471477zM-103.72020459242813,-51.24997217623912L-108.9987271138928,-5.817183190550757L-96.92859758840501,-23.68506605423939zM-121.6795785339218,31.420299571754967L-103.72020459242813,-51.24997217623912L-123.38790932089098,-30.178978430478086zM57.076134318454905,-118.27353829468687L65.8665792055183,-91.025092686659L84.23755539779575,-116.44212769923503zM57.076134318454905,-118.27353829468687L44.788197797946516,-92.78798011471477L65.8665792055183,-91.025092686659zM-103.72020459242813,-51.24997217623912L-117.39536612426545,12.74606245386287L-108.9987271138928,-5.817183190550757zM-103.72020459242813,-51.24997217623912L-121.6795785339218,31.420299571754967L-117.39536612426545,12.74606245386287zM84.23755539779575,-116.44212769923503L65.8665792055183,-91.025092686659L85.11712252523249,-85.85165811582692zM84.23755539779575,-116.44212769923503L101.80585704763803,-77.28478927052157L109.3246495663721,-110.29770872678091zM84.23755539779575,-116.44212769923503L85.11712252523249,-85.85165811582692L101.80585704763803,-77.28478927052157zM-139.2106991927676,-7.45843739434982L-140.0807388733087,106.58815815323081L-123.38790932089098,-30.178978430478086zM-150.54157367444,16.315472156159654L-151.86826787447248,86.52572120432565L-139.2106991927676,-7.45843739434982zM-157.35204225934538,64.15347731434039L-150.54157367444,16.315472156159654L-156.76922796485078,40.45117297775506zM109.3246495663721,-110.29770872678091L115.20519678896859,-65.45410501944886L131.4014400300545,-99.78222179205535zM109.3246495663721,-110.29770872678091L101.80585704763803,-77.28478927052157L115.20519678896859,-65.45410501944886zM-150.54157367444,16.315472156159654L-157.35204225934538,64.15347731434039L-151.86826787447248,86.52572120432565zM-123.38790932089098,-30.178978430478086L-122.01179759137108,123.3181300529402L-121.6795785339218,31.420299571754967zM-139.2106991927676,-7.45843739434982L-151.86826787447248,86.52572120432565L-140.0807388733087,106.58815815323081zM131.4014400300545,-99.78222179205535L115.20519678896859,-65.45410501944886L124.62660797053938,-50.62448657605716zM-123.38790932089098,-30.178978430478086L-140.0807388733087,106.58815815323081L-122.01179759137108,123.3181300529402zM131.4014400300545,-99.78222179205535L124.62660797053938,-50.62448657605716L129.4657465320819,-33.21592825926208zM-121.6795785339218,31.420299571754967L-122.01179759137108,123.3181300529402L-121.49609821511555,49.558493687653694zM131.4014400300545,-99.78222179205535L164.19285696670582,9.02384888976095L149.49692423378957,-84.96802826965707zM-121.49609821511555,49.558493687653694L-122.01179759137108,123.3181300529402L-116.60832326655604,66.46082790259106zM-116.60832326655604,66.46082790259106L-122.01179759137108,123.3181300529402L-106.93939256334568,81.3953717672996zM149.49692423378957,-84.96802826965707L164.19285696670582,9.02384888976095L162.64319457970487,-66.09894884298735zM131.4014400300545,-99.78222179205535L129.4657465320819,-33.21592825926208L150.50075207597584,37.04155200688241zM162.64319457970487,-66.09894884298735L170.62163784186228,-18.269564931730024L169.93659313695431,-43.63173768852697zM-106.93939256334568,81.3953717672996L-98.01750450987707,135.71554156445623L-92.61507510753607,93.6317538129851zM-106.93939256334568,81.3953717672996L-122.01179759137108,123.3181300529402L-98.01750450987707,135.71554156445623zM131.4014400300545,-99.78222179205535L150.50075207597584,37.04155200688241L164.19285696670582,9.02384888976095zM162.64319457970487,-66.09894884298735L164.19285696670582,9.02384888976095L170.62163784186228,-18.269564931730024zM129.25805280233462,-13.815252096388784L150.50075207597584,37.04155200688241L129.4657465320819,-33.21592825926208zM-92.61507510753607,93.6317538129851L-68.84576152121718,142.89237472349723L-74.0012998999148,102.48809115130811zM123.73998526684409,6.826261596111003L150.50075207597584,37.04155200688241L129.25805280233462,-13.815252096388784zM-92.61507510753607,93.6317538129851L-98.01750450987707,135.71554156445623L-68.84576152121718,142.89237472349723zM-74.0012998999148,102.48809115130811L-68.84576152121718,142.89237472349723L-51.7275046802291,107.38858299645618zM112.90713783486135,27.814946292477863L129.84190760230965,64.39165429221886L123.73998526684409,6.826261596111003zM-51.7275046802291,107.38858299645618L-35.65848728933991,144.17779676560838L-26.686026369703196,107.92568803504656zM-51.7275046802291,107.38858299645618L-68.84576152121718,142.89237472349723L-35.65848728933991,144.17779676560838zM123.73998526684409,6.826261596111003L129.84190760230965,64.39165429221886L150.50075207597584,37.04155200688241zM97.05794834427981,48.159609160997356L103.00778428085,89.59843522608384L112.90713783486135,27.814946292477863zM-26.686026369703196,107.92568803504656L5.124618623616207e-14,139.2223381272133L3.6277847882147923e-14,103.91723857271899zM76.81069116966728,66.8381064363294L103.00778428085,89.59843522608384L97.05794834427981,48.159609160997356zM3.6277847882147923e-14,103.91723857271899L5.124618623616207e-14,139.2223381272133L27.042711650148313,95.44709482953154zM-26.686026369703196,107.92568803504656L-35.65848728933991,144.17779676560838L5.124618623616207e-14,139.2223381272133zM112.90713783486135,27.814946292477863L103.00778428085,89.59843522608384L129.84190760230965,64.39165429221886zM53.08469920429881,82.87906905051497L71.2709240266216,111.23682969269824L76.81069116966728,66.8381064363294zM27.042711650148313,95.44709482953154L36.29822171370529,128.07870776581444L53.08469920429881,82.87906905051497zM27.042711650148313,95.44709482953154L5.124618623616207e-14,139.2223381272133L36.29822171370529,128.07870776581444zM76.81069116966728,66.8381064363294L71.2709240266216,111.23682969269824L103.00778428085,89.59843522608384zM53.08469920429881,82.87906905051497L36.29822171370529,128.07870776581444L71.2709240266216,111.23682969269824z" style="fill:rgb(83,212,212)"/></svg>
