<?xml version="1.0" encoding="UTF-8"?>
<!-- Generated by jsxcad -->
<!DOCTYPE svg PUBLIC "-//W3C//DTD SVG 1.1 Tiny//EN" "http://www.w3.org/Graphics/SVG/1.1/DTD/svg11-tiny.dtd">
<svg viewBox="-250 -250 500 500" width="500" height="500" xmlns="http://www.w3.org/2000/svg"><path d="M193.48269436919767,14.238380928861984L-103.52187744304261,79.56573486132706L-104.60956545753939,86.46252865431703z" style="fill:rgb(84,220,202)"/><path d="M194.15139278463283,19.5583521604626L-104.60956545753939,86.46252865431703L-106.47109662181903,92.00691809786433z" style="fill:rgb(85,234,182)"/><path d="M-109.05776420124987,95.96284390349453L194.15139278463283,19.5583521604626L-106.47109662181903,92.00691809786433z" style="fill:rgb(89,244,159)"/><path d="M-103.52187744304261,79.56573486132706L193.48269436919767,14.238380928861984L192.3284471302869,7.387075716269395z" style="fill:rgb(84,220,202)"/><path d="M-112.29214837263436,98.13887053833612L194.29715868903102,23.11252693639199L-109.05776420124987,95.96284390349453z" style="fill:rgb(93,250,135)"/><path d="M-104.60956545753939,86.46252865431703L194.15139278463283,19.5583521604626L193.48269436919767,14.238380928861984z" style="fill:rgb(85,234,182)"/><path d="M192.3284471302869,7.387075716269395L201.17476210251988,39.32253894456411L199.27125863500396,28.27534917281552z" style="fill:rgb(247,158,158)"/><path d="M202.20142755553877,57.27560319644766L-110.8345284519829,129.29522095806158L-104.86689248530625,128.41141357348906z" style="fill:rgb(155,4,143)"/><path d="M194.15139278463283,19.5583521604626L-109.05776420124987,95.96284390349453L194.29715868903102,23.11252693639199z" style="fill:rgb(89,244,159)"/><path d="M201.17476210251988,39.32253894456411L192.3284471302869,7.387075716269395L202.34234362006842,48.09923959296699zM202.34234362006842,48.09923959296699L192.3284471302869,7.387075716269395L193.48269436919767,14.238380928861984z" style="fill:rgb(247,158,158)"/><path d="M194.29715868903102,23.11252693639199L-112.29214837263436,98.13887053833612L193.8993171298404,24.71626868525987z" style="fill:rgb(93,250,135)"/><path d="M202.34234362006842,48.09923959296699L193.48269436919767,14.238380928861984L202.70156077155028,54.20025065990271z" style="fill:rgb(247,158,158)"/><path d="M-110.8345284519829,129.29522095806158L198.56710540431982,53.392126216179165L-117.53073748435551,126.97159504659957z" style="fill:rgb(148,8,167)"/><path d="M202.70156077155028,54.20025065990271L193.48269436919767,14.238380928861984L194.15139278463283,19.5583521604626zM202.70156077155028,54.20025065990271L194.15139278463283,19.5583521604626L194.29715868903102,23.11252693639199z" style="fill:rgb(247,158,158)"/><path d="M-110.8345284519829,129.29522095806158L202.20142755553877,57.27560319644766L200.81913856893638,57.05768674001851z" style="fill:rgb(155,4,143)"/><path d="M-117.53073748435551,126.97159504659957L195.49933160322925,46.269116920083476L-124.70523743893462,121.39609853067073z" style="fill:rgb(140,16,189)"/><path d="M202.70156077155028,54.20025065990271L194.29715868903102,23.11252693639199L202.20142755553877,57.27560319644766zM202.20142755553877,57.27560319644766L194.29715868903102,23.11252693639199L193.8993171298404,24.71626868525987z" style="fill:rgb(247,158,158)"/><path d="M198.56710540431982,53.392126216179165L-110.8345284519829,129.29522095806158L200.81913856893638,57.05768674001851z" style="fill:rgb(148,8,167)"/><path d="M191.71532247817657,35.850094131828584L-129.17726331169317,87.46582497535078L-132.06320088145142,112.67939040122627z" style="fill:rgb(83,212,212)"/><path d="M202.20142755553877,57.27560319644766L193.8993171298404,24.71626868525987L192.95667471374546,24.248234595021458z" style="fill:rgb(247,158,158)"/><path d="M-124.70523743893462,121.39609853067073L191.71532247817657,35.850094131828584L-132.06320088145142,112.67939040122627z" style="fill:rgb(131,29,208)"/><path d="M202.20142755553877,57.27560319644766L192.95667471374546,24.248234595021458L200.81913856893638,57.05768674001851z" style="fill:rgb(247,158,158)"/><path d="M195.49933160322925,46.269116920083476L-117.53073748435551,126.97159504659957L198.56710540431982,53.392126216179165z" style="fill:rgb(140,16,189)"/><path d="M200.81913856893638,57.05768674001851L192.95667471374546,24.248234595021458L191.4900613644923,21.66371569575732z" style="fill:rgb(247,158,158)"/><path d="M-129.17726331169317,87.46582497535078L191.71532247817657,35.850094131828584L187.18747863986292,10.414788682335082z" style="fill:rgb(83,212,212)"/><path d="M200.81913856893638,57.05768674001851L191.4900613644923,21.66371569575732L198.56710540431982,53.392126216179165z" style="fill:rgb(247,158,158)"/><path d="M191.71532247817657,35.850094131828584L-124.70523743893462,121.39609853067073L195.49933160322925,46.269116920083476z" style="fill:rgb(131,29,208)"/><path d="M198.56710540431982,53.392126216179165L191.4900613644923,21.66371569575732L189.5440980866038,17.00614009235216zM198.56710540431982,53.392126216179165L189.5440980866038,17.00614009235216L187.18747863986292,10.414788682335082zM198.56710540431982,53.392126216179165L187.18747863986292,10.414788682335082L195.49933160322925,46.269116920083476zM195.49933160322925,46.269116920083476L187.18747863986292,10.414788682335082L191.71532247817657,35.850094131828584z" style="fill:rgb(247,158,158)"/><path d="M130.85316494157289,-139.43558521837107L-132.55677392239437,116.99159344801444L192.49134583545646,40.20942665860034z" style="fill:rgb(127,37,217)"/><path d="M187.92720830179329,14.570242733810682L130.85316494157289,-139.43558521837107L192.49134583545646,40.20942665860034z" style="fill:rgb(247,158,158)"/><path d="M-132.55677392239437,116.99159344801444L130.85316494157289,-139.43558521837107L-241.8098437665792,-34.08081495085423z" style="fill:rgb(127,37,217)"/><path d="M130.85316494157289,-139.43558521837107L-235.6617560317076,-59.68500403974342L-241.8098437665792,-34.08081495085423z" style="fill:rgb(83,212,212)"/><path d="M130.85316494157289,-139.43558521837107L187.92720830179329,14.570242733810682L127.20938477974423,-164.54409332226504z" style="fill:rgb(247,158,158)"/><path d="M-235.6617560317076,-59.68500403974342L130.85316494157289,-139.43558521837107L127.20938477974423,-164.54409332226504z" style="fill:rgb(83,212,212)"/></svg>
