<?xml version="1.0" encoding="UTF-8"?>
<!-- Generated by jsxcad -->
<!DOCTYPE svg PUBLIC "-//W3C//DTD SVG 1.1 Tiny//EN" "http://www.w3.org/Graphics/SVG/1.1/DTD/svg11-tiny.dtd">
<svg viewBox="-250 -250 500 500" width="500" height="500" xmlns="http://www.w3.org/2000/svg"><path d="M165.69918801169752,-66.67737538687709L-151.67708756938973,3.9108096295870953L-154.79262045805885,17.642706673844696z" style="fill:rgb(84,220,202)"/><path d="M166.62286438159373,-56.563457939477274L-154.79262045805885,17.642706673844696L-159.77486119850263,28.508073701623772z" style="fill:rgb(85,234,182)"/><path d="M-151.67708756938973,3.9108096295870953L165.69918801169752,-66.67737538687709L163.6754649759208,-80.10261952974348z" style="fill:rgb(84,220,202)"/><path d="M-166.556172345751,35.97795169090034L166.62286438159373,-56.563457939477274L-159.77486119850263,28.508073701623772z" style="fill:rgb(89,244,159)"/><path d="M163.6754649759208,-80.10261952974348L174.54178370321387,-38.007810177914244L171.7790316076866,-55.69417190648345z" style="fill:rgb(247,158,158)"/><path d="M-154.79262045805885,17.642706673844696L166.62286438159373,-56.563457939477274L165.69918801169752,-66.67737538687709z" style="fill:rgb(85,234,182)"/><path d="M174.54178370321387,-38.007810177914244L163.6754649759208,-80.10261952974348L175.95259110760955,-24.287776286049706z" style="fill:rgb(247,158,158)"/><path d="M-174.99850963074095,39.57494839515316L166.34960624179183,-50.30054888729369L-166.556172345751,35.97795169090034z" style="fill:rgb(93,250,135)"/><path d="M175.95259110760955,-24.287776286049706L163.6754649759208,-80.10261952974348L165.69918801169752,-66.67737538687709z" style="fill:rgb(247,158,158)"/><path d="M166.62286438159373,-56.563457939477274L-166.556172345751,35.97795169090034L166.34960624179183,-50.30054888729369z" style="fill:rgb(89,244,159)"/><path d="M175.95259110760955,-24.287776286049706L165.69918801169752,-66.67737538687709L166.62286438159373,-56.563457939477274z" style="fill:rgb(247,158,158)"/><path d="M174.14256793309593,-11.725372131458307L-174.99850963074095,39.57494839515316L-166.7635731792581,73.34766779917798z" style="fill:rgb(96,123,251)"/><path d="M175.95259110760955,-24.287776286049706L166.62286438159373,-56.563457939477274L175.86132534425522,-15.285543550646269z" style="fill:rgb(247,158,158)"/><path d="M166.34960624179183,-50.30054888729369L-174.99850963074095,39.57494839515316L164.81052362406274,-48.36898239242026z" style="fill:rgb(93,250,135)"/><path d="M175.86132534425522,-15.285543550646269L166.62286438159373,-56.563457939477274L166.34960624179183,-50.30054888729369z" style="fill:rgb(247,158,158)"/><path d="M-174.99850963074095,39.57494839515316L174.14256793309593,-11.725372131458307L164.81052362406274,-48.36898239242026z" style="fill:rgb(96,123,251)"/><path d="M175.86132534425522,-15.285543550646269L166.34960624179183,-50.30054888729369L174.14256793309593,-11.725372131458307zM174.14256793309593,-11.725372131458307L166.34960624179183,-50.30054888729369L164.81052362406274,-48.36898239242026z" style="fill:rgb(247,158,158)"/></svg>
