solid JSxCAD
facet normal 0 1 0
outer loop
vertex 7.07107 -30 5.92893
vertex 5.5557 -30 4.6853
vertex 3.82683 -30 3.7612
endloop
endfacet
facet normal 0 1 0
outer loop
vertex 7.07107 -30 5.92893
vertex 3.82683 -30 3.7612
vertex 1.9509 -30 3.19215
endloop
endfacet
facet normal 0 1 0
outer loop
vertex 7.07107 -30 5.92893
vertex 1.9509 -30 3.19215
vertex 0 -30 3
endloop
endfacet
facet normal 0 -1 0
outer loop
vertex 7.07107 -30 5.92893
vertex 0 -30 3
vertex 0 -30 0
endloop
endfacet
facet normal 0 -1 0
outer loop
vertex 7.07107 -30 5.92893
vertex 0 -30 0
vertex 2.53617 -30 0.24979
endloop
endfacet
facet normal 0 -1 0
outer loop
vertex 7.07107 -30 5.92893
vertex 2.53617 -30 0.24979
vertex 4.97488 -30 0.98957
endloop
endfacet
facet normal 0 -1 0
outer loop
vertex 7.07107 -30 5.92893
vertex 4.97488 -30 0.98957
vertex 7.22241 -30 2.1909
endloop
endfacet
facet normal 0 -1 0
outer loop
vertex 7.07107 -30 5.92893
vertex 7.22241 -30 2.1909
vertex 9.19239 -30 3.80761
endloop
endfacet
facet normal 0 1 0
outer loop
vertex 9.19239 0 3.80761
vertex 7.22241 0 2.1909
vertex 4.97488 0 0.98957
endloop
endfacet
facet normal 0 1 0
outer loop
vertex 9.19239 0 3.80761
vertex 4.97488 0 0.98957
vertex 2.53617 0 0.24979
endloop
endfacet
facet normal 0 1 0
outer loop
vertex 9.19239 0 3.80761
vertex 2.53617 0 0.24979
vertex 0 0 0
endloop
endfacet
facet normal 0 1 0
outer loop
vertex 9.19239 0 3.80761
vertex 0 0 0
vertex 0 0 3
endloop
endfacet
facet normal 0 1 0
outer loop
vertex 9.19239 0 3.80761
vertex 0 0 3
vertex 1.9509 0 3.19215
endloop
endfacet
facet normal 0 1 0
outer loop
vertex 9.19239 0 3.80761
vertex 1.9509 0 3.19215
vertex 3.82683 0 3.7612
endloop
endfacet
facet normal 0 1 0
outer loop
vertex 9.19239 0 3.80761
vertex 3.82683 0 3.7612
vertex 5.5557 0 4.6853
endloop
endfacet
facet normal 0 1 0
outer loop
vertex 9.19239 0 3.80761
vertex 5.5557 0 4.6853
vertex 7.07107 0 5.92893
endloop
endfacet
facet normal 0.6343907508150894 0 -0.7730125324212195
outer loop
vertex 9.19239 0 3.80761
vertex 9.19239 -30 3.80761
vertex 7.22241 -30 2.1909
endloop
endfacet
facet normal 0.6343907508150894 0 -0.7730125324212195
outer loop
vertex 9.19239 0 3.80761
vertex 7.22241 -30 2.1909
vertex 7.22241 0 2.1909
endloop
endfacet
facet normal 0.4713967937812791 0 -0.8819212339051204
outer loop
vertex 7.22241 0 2.1909
vertex 7.22241 -30 2.1909
vertex 4.97488 -30 0.98957
endloop
endfacet
facet normal 0.4713967937812791 0 -0.8819212339051204
outer loop
vertex 7.22241 0 2.1909
vertex 4.97488 -30 0.98957
vertex 4.97488 0 0.98957
endloop
endfacet
facet normal 0.29028662095189955 0 -0.9569397461158817
outer loop
vertex 4.97488 0 0.98957
vertex 4.97488 -30 0.98957
vertex 2.53617 -30 0.24979
endloop
endfacet
facet normal 0.29028662095189955 0 -0.9569397461158817
outer loop
vertex 4.97488 0 0.98957
vertex 2.53617 -30 0.24979
vertex 2.53617 0 0.24979
endloop
endfacet
facet normal 0.09801677406730483 0 -0.9951847627458124
outer loop
vertex 2.53617 0 0.24979
vertex 2.53617 -30 0.24979
vertex 0 -30 0
endloop
endfacet
facet normal 0.09801677406730483 0 -0.9951847627458124
outer loop
vertex 2.53617 0 0.24979
vertex 0 -30 0
vertex 0 0 0
endloop
endfacet
facet normal -1 0 0
outer loop
vertex 0 0 0
vertex 0 -30 0
vertex 0 -30 3
endloop
endfacet
facet normal -1 0 0
outer loop
vertex 0 0 0
vertex 0 -30 3
vertex 0 0 3
endloop
endfacet
facet normal -0.09801871720095075 0 0.9951845713626593
outer loop
vertex 0 0 3
vertex 0 -30 3
vertex 1.9509 -30 3.19215
endloop
endfacet
facet normal -0.09801871720095075 0 0.9951845713626593
outer loop
vertex 0 0 3
vertex 1.9509 -30 3.19215
vertex 1.9509 0 3.19215
endloop
endfacet
facet normal -0.2902813399870941 0 0.9569413480748427
outer loop
vertex 1.9509 0 3.19215
vertex 1.9509 -30 3.19215
vertex 3.82683 -30 3.7612
endloop
endfacet
facet normal -0.2902813399870941 0 0.9569413480748427
outer loop
vertex 1.9509 0 3.19215
vertex 3.82683 -30 3.7612
vertex 3.82683 0 3.7612
endloop
endfacet
facet normal -0.47139663064873977 0 0.8819213211012735
outer loop
vertex 3.82683 0 3.7612
vertex 3.82683 -30 3.7612
vertex 5.5557 -30 4.6853
endloop
endfacet
facet normal -0.47139663064873977 0 0.8819213211012735
outer loop
vertex 3.82683 0 3.7612
vertex 5.5557 -30 4.6853
vertex 5.5557 0 4.6853
endloop
endfacet
facet normal -0.6343926686613754 0 0.7730109584919856
outer loop
vertex 5.5557 0 4.6853
vertex 5.5557 -30 4.6853
vertex 7.07107 -30 5.92893
endloop
endfacet
facet normal -0.6343926686613754 0 0.7730109584919856
outer loop
vertex 5.5557 0 4.6853
vertex 7.07107 -30 5.92893
vertex 7.07107 0 5.92893
endloop
endfacet
facet normal 0.7071067811865476 0 0.7071067811865475
outer loop
vertex 7.07107 0 5.92893
vertex 7.07107 -30 5.92893
vertex 9.19239 -30 3.80761
endloop
endfacet
facet normal 0.7071067811865476 0 0.7071067811865475
outer loop
vertex 7.07107 0 5.92893
vertex 9.19239 -30 3.80761
vertex 9.19239 0 3.80761
endloop
endfacet
endsolid JSxCAD
