<?xml version="1.0" encoding="UTF-8"?>
<!-- Generated by jsxcad -->
<!DOCTYPE svg PUBLIC "-//W3C//DTD SVG 1.1 Tiny//EN" "http://www.w3.org/Graphics/SVG/1.1/DTD/svg11-tiny.dtd">
<svg viewBox="-250 -250 500 500" width="500" height="500" xmlns="http://www.w3.org/2000/svg"><path d="M-102.56727387248968,-166.99942582016197L20.24846728439246,75.71512564049264L18.190792834419717,61.5233214190834z" style="fill:rgb(246,167,149)"/><path d="M-102.07055613324931,-153.31953910103735L25.969235238081918,88.87078639654871L20.24846728439246,75.71512564049264z" style="fill:rgb(242,183,130)"/><path d="M11.201746782456794,119.47038365628805L-130.2006932572762,-122.57229030465399L-0.4863178649543492,104.0687371978347z" style="fill:rgb(21,57,142)"/><path d="M27.4304368083303,132.19772310632436L-118.64773856885755,-108.6487153172777L11.201746782456794,119.47038365628805z" style="fill:rgb(34,46,160)"/><path d="M47.741814366337074,141.55230298335204L-101.25370911655106,-97.86730099720512L27.4304368083303,132.19772310632436z" style="fill:rgb(51,38,177)"/><path d="M20.24846728439246,75.71512564049264L-102.56727387248968,-166.99942582016197L-102.07055613324931,-153.31953910103735z" style="fill:rgb(246,167,149)"/><path d="M25.969235238081918,88.87078639654871L-102.07055613324931,-153.31953910103735L-97.13776523291644,-141.04950159564314z" style="fill:rgb(242,183,130)"/><path d="M-50.81205157227944,-88.39485786735641L47.741814366337074,141.55230298335204L71.417502087805,146.93997051281647z" style="fill:rgb(71,33,192)"/><path d="M-19.604815067842523,-90.64431453811412L71.417502087805,146.93997051281647L97.48671242327671,147.93338634565768z" style="fill:rgb(92,32,204)"/><path d="M-130.2006932572762,-122.57229030465399L11.201746782456794,119.47038365628805L-118.64773856885755,-108.6487153172777z" style="fill:rgb(21,57,142)"/><path d="M122.00635161404212,118.11020125945393L13.78319222379609,-97.77166270920812L124.76591911081339,144.32986504792328z" style="fill:rgb(247,158,158)"/><path d="M13.78319222379609,-97.77166270920812L97.48671242327671,147.93338634565768L124.76591911081339,144.32986504792328z" style="fill:rgb(115,34,214)"/><path d="M-135.84455778184713,-138.8840299569676L-102.56727387248968,-166.99942582016197L-135.75848978046974,-156.82868841157585z" style="fill:rgb(83,212,212)"/><path d="M-118.64773856885755,-108.6487153172777L27.4304368083303,132.19772310632436L-101.25370911655106,-97.86730099720512z" style="fill:rgb(34,46,160)"/><path d="M-102.56727387248968,-166.99942582016197L-135.84455778184713,-138.8840299569676L-130.2006932572762,-122.57229030465399z" style="fill:rgb(83,212,212)"/><path d="M-101.25370911655106,-97.86730099720512L47.741814366337074,141.55230298335204L-78.3968099796542,-90.92556589607346z" style="fill:rgb(51,38,177)"/><path d="M-102.56727387248968,-166.99942582016197L-130.2006932572762,-122.57229030465399L-118.64773856885755,-108.6487153172777zM-102.56727387248968,-166.99942582016197L-101.25370911655106,-97.86730099720512L-102.07055613324931,-153.31953910103735z" style="fill:rgb(83,212,212)"/><path d="M47.741814366337074,141.55230298335204L-50.81205157227944,-88.39485786735641L-78.3968099796542,-90.92556589607346z" style="fill:rgb(71,33,192)"/><path d="M-102.07055613324931,-153.31953910103735L-101.25370911655106,-97.86730099720512L-97.13776523291644,-141.04950159564314zM-102.56727387248968,-166.99942582016197L-118.64773856885755,-108.6487153172777L-101.25370911655106,-97.86730099720512z" style="fill:rgb(83,212,212)"/><path d="M71.417502087805,146.93997051281647L-19.604815067842523,-90.64431453811412L-50.81205157227944,-88.39485786735641z" style="fill:rgb(92,32,204)"/><path d="M13.78319222379609,-97.77166270920812L122.00635161404212,118.11020125945393L13.398370543948388,-124.10951067651791z" style="fill:rgb(247,158,158)"/><path d="M-97.13776523291644,-141.04950159564314L-101.25370911655106,-97.86730099720512L-87.72466605437944,-130.7443200053279z" style="fill:rgb(83,212,212)"/><path d="M97.48671242327671,147.93338634565768L13.78319222379609,-97.77166270920812L-19.604815067842523,-90.64431453811412z" style="fill:rgb(115,34,214)"/><path d="M-87.72466605437944,-130.7443200053279L-78.3968099796542,-90.92556589607346L-73.97820560309398,-122.93369716771916zM-87.72466605437944,-130.7443200053279L-101.25370911655106,-97.86730099720512L-78.3968099796542,-90.92556589607346zM-73.97820560309398,-122.93369716771916L-50.81205157227944,-88.39485786735641L-56.26793436801969,-118.08418059781654zM-73.97820560309398,-122.93369716771916L-78.3968099796542,-90.92556589607346L-50.81205157227944,-88.39485786735641zM-56.26793436801969,-118.08418059781654L-50.81205157227944,-88.39485786735641L-35.20365005075683,-116.55552500150088zM-35.20365005075683,-116.55552500150088L-19.604815067842523,-90.64431453811412L-11.631411141498797,-118.5567993288928zM-35.20365005075683,-116.55552500150088L-50.81205157227944,-88.39485786735641L-19.604815067842523,-90.64431453811412zM-11.631411141498797,-118.5567993288928L13.78319222379609,-97.77166270920812L13.398370543948388,-124.10951067651791zM-11.631411141498797,-118.5567993288928L-19.604815067842523,-90.64431453811412L13.78319222379609,-97.77166270920812z" style="fill:rgb(83,212,212)"/></svg>
