<?xml version="1.0" encoding="UTF-8"?>
<!-- Generated by jsxcad -->
<!DOCTYPE svg PUBLIC "-//W3C//DTD SVG 1.1 Tiny//EN" "http://www.w3.org/Graphics/SVG/1.1/DTD/svg11-tiny.dtd">
<svg viewBox="-250 -250 500 500" width="500" height="500" xmlns="http://www.w3.org/2000/svg"><path d="M191.36668067269846,2.6965451061698547L-102.47606407840448,68.24420868624189L-103.54512389846258,74.98897763093474z" style="fill:rgb(84,220,202)"/><path d="M192.00924139001756,7.85549425083776L-103.54512389846258,74.98897763093474L-105.37878237686769,80.38190314699094z" style="fill:rgb(85,234,182)"/><path d="M-107.92888574015531,84.19270893683507L192.00924139001756,7.85549425083776L-105.37878237686769,80.38190314699094z" style="fill:rgb(89,244,159)"/><path d="M-102.47606407840448,68.24420868624189L191.36668067269846,2.6965451061698547L190.24127429559815,-3.9914190442915474z" style="fill:rgb(84,220,202)"/><path d="M-111.11892712456175,86.23600057115556L192.1327254487354,11.257220527047592L-107.92888574015531,84.19270893683507z" style="fill:rgb(93,250,135)"/><path d="M-103.54512389846258,74.98897763093474L192.00924139001756,7.85549425083776L191.36668067269846,2.6965451061698547z" style="fill:rgb(85,234,182)"/><path d="M190.24127429559815,-3.9914190442915474L199.00903283093893,27.691167538425347L197.15195673213088,16.90208657192848z" style="fill:rgb(247,158,158)"/><path d="M199.9240773655815,44.904655009404536L-109.65799691574452,116.87105537809218L-103.77026863448462,116.18131509955239z" style="fill:rgb(155,4,143)"/><path d="M192.00924139001756,7.85549425083776L-107.92888574015531,84.19270893683507L192.1327254487354,11.257220527047592z" style="fill:rgb(89,244,159)"/><path d="M199.00903283093893,27.691167538425347L190.24127429559815,-3.9914190442915474L200.13347424377437,36.208815654011566zM200.13347424377437,36.208815654011566L190.24127429559815,-3.9914190442915474L191.36668067269846,2.6965451061698547z" style="fill:rgb(247,158,158)"/><path d="M192.1327254487354,11.257220527047592L-111.11892712456175,86.23600057115556L191.71757355403818,12.723580893187814z" style="fill:rgb(93,250,135)"/><path d="M200.13347424377437,36.208815654011566L191.36668067269846,2.6965451061698547L200.45479693105995,42.059653519142465z" style="fill:rgb(247,158,158)"/><path d="M-109.65799691574452,116.87105537809218L196.25835502208923,40.66621444276998L-116.26486085788939,114.39058262449109z" style="fill:rgb(148,8,167)"/><path d="M200.45479693105995,42.059653519142465L191.36668067269846,2.6965451061698547L192.00924139001756,7.85549425083776zM200.45479693105995,42.059653519142465L192.00924139001756,7.85549425083776L192.1327254487354,11.257220527047592z" style="fill:rgb(247,158,158)"/><path d="M-109.65799691574452,116.87105537809218L199.9240773655815,44.904655009404536L198.5205282114569,44.48779140121765z" style="fill:rgb(155,4,143)"/><path d="M-116.26486085788939,114.39058262449109L193.19290456361995,33.44054823440329L-123.34385426892204,108.7051691911217z" style="fill:rgb(140,16,189)"/><path d="M200.45479693105995,42.059653519142465L192.1327254487354,11.257220527047592L199.9240773655815,44.904655009404536zM199.9240773655815,44.904655009404536L192.1327254487354,11.257220527047592L191.71757355403818,12.723580893187814z" style="fill:rgb(247,158,158)"/><path d="M196.25835502208923,40.66621444276998L-109.65799691574452,116.87105537809218L198.5205282114569,44.48779140121765z" style="fill:rgb(148,8,167)"/><path d="M189.42434699056926,22.980466609402804L-127.78108276295782,75.26781948796598L-130.6042912178994,99.9333396283761z" style="fill:rgb(83,212,212)"/><path d="M199.9240773655815,44.904655009404536L191.71757355403818,12.723580893187814L190.76359825297305,12.139676978775118z" style="fill:rgb(247,158,158)"/><path d="M-123.34385426892204,108.7051691911217L189.42434699056926,22.980466609402804L-130.6042912178994,99.9333396283761z" style="fill:rgb(131,29,208)"/><path d="M199.9240773655815,44.904655009404536L190.76359825297305,12.139676978775118L198.5205282114569,44.48779140121765z" style="fill:rgb(247,158,158)"/><path d="M193.19290456361995,33.44054823440329L-116.26486085788939,114.39058262449109L196.25835502208923,40.66621444276998z" style="fill:rgb(140,16,189)"/><path d="M198.5205282114569,44.48779140121765L190.76359825297305,12.139676978775118L189.2924363532212,9.466776208678798z" style="fill:rgb(247,158,158)"/><path d="M-127.78108276295782,75.26781948796598L189.42434699056926,22.980466609402804L185.00282304393917,-1.8575821201668874z" style="fill:rgb(83,212,212)"/><path d="M198.5205282114569,44.48779140121765L189.2924363532212,9.466776208678798L196.25835502208923,40.66621444276998z" style="fill:rgb(247,158,158)"/><path d="M189.42434699056926,22.980466609402804L-123.34385426892204,108.7051691911217L193.19290456361995,33.44054823440329z" style="fill:rgb(131,29,208)"/><path d="M196.25835502208923,40.66621444276998L189.2924363532212,9.466776208678798L187.34922963299937,4.75336836264688zM196.25835502208923,40.66621444276998L187.34922963299937,4.75336836264688L185.00282304393917,-1.8575821201668874zM196.25835502208923,40.66621444276998L185.00282304393917,-1.8575821201668874L193.19290456361995,33.44054823440329zM193.19290456361995,33.44054823440329L185.00282304393917,-1.8575821201668874L189.42434699056926,22.980466609402804z" style="fill:rgb(247,158,158)"/><path d="M132.7544699031886,-126.33410024493553L-134.059880556182,130.1237718290448L194.85757234606976,53.501777712249535z" style="fill:rgb(127,37,217)"/><path d="M190.18189748899624,27.236030112738103L132.7544699031886,-126.33410024493553L194.85757234606976,53.501777712249535z" style="fill:rgb(247,158,158)"/><path d="M-134.059880556182,130.1237718290448L132.7544699031886,-126.33410024493553L-245.005774582048,-20.771114287024005z" style="fill:rgb(127,37,217)"/><path d="M132.7544699031886,-126.33410024493553L-238.6962181490168,-47.0477537826646L-245.005774582048,-20.771114287024005z" style="fill:rgb(83,212,212)"/><path d="M132.7544699031886,-126.33410024493553L190.18189748899624,27.236030112738103L129.0055502177724,-152.1671022707435z" style="fill:rgb(247,158,158)"/><path d="M-238.6962181490168,-47.0477537826646L132.7544699031886,-126.33410024493553L129.0055502177724,-152.1671022707435z" style="fill:rgb(83,212,212)"/></svg>
