<?xml version="1.0" encoding="UTF-8"?>
<!-- Generated by jsxcad -->
<!DOCTYPE svg PUBLIC "-//W3C//DTD SVG 1.1 Tiny//EN" "http://www.w3.org/Graphics/SVG/1.1/DTD/svg11-tiny.dtd">
<svg viewBox="-250 -250 500 500" width="500" height="500" xmlns="http://www.w3.org/2000/svg"><path d="M181.64023351340177,24.73466671140423L-85.33243490759916,76.91911056114L-87.05863770284455,89.35245161789715z" style="fill:rgb(84,220,202)"/><path d="M182.65710040852034,34.52155519230069L-87.05863770284455,89.35245161789715L-90.18071262685356,99.487525794636z" style="fill:rgb(85,234,182)"/><path d="M-85.33243490759916,76.91911056114L181.64023351340177,24.73466671140423L179.7460035374887,12.367726776708137z" style="fill:rgb(84,220,202)"/><path d="M-94.6534300823788,106.86572759057259L182.65710040852034,34.52155519230069L-90.18071262685356,99.487525794636z" style="fill:rgb(89,244,159)"/><path d="M179.7460035374887,12.367726776708137L188.72259111717267,47.132592447989175L186.17883325032568,30.94828902496219z" style="fill:rgb(247,158,158)"/><path d="M-87.05863770284455,89.35245161789715L182.65710040852034,34.52155519230069L181.64023351340177,24.73466671140423z" style="fill:rgb(85,234,182)"/><path d="M188.72259111717267,47.132592447989175L179.7460035374887,12.367726776708137L190.17944623249255,60.1995015988743z" style="fill:rgb(247,158,158)"/><path d="M-100.37993210607884,111.07791807881635L182.71846897991014,41.26325195536823L-94.6534300823788,106.86572759057259z" style="fill:rgb(93,250,135)"/><path d="M190.17944623249255,60.1995015988743L179.7460035374887,12.367726776708137L181.64023351340177,24.73466671140423z" style="fill:rgb(247,158,158)"/><path d="M182.65710040852034,34.52155519230069L-94.6534300823788,106.86572759057259L182.71846897991014,41.26325195536823z" style="fill:rgb(89,244,159)"/><path d="M190.17944623249255,60.1995015988743L181.64023351340177,24.73466671140423L182.65710040852034,34.52155519230069z" style="fill:rgb(247,158,158)"/><path d="M189.38660098332724,74.47724221652184L-102.27639941429865,140.64588619793255L-93.50857102935862,139.06251671467004z" style="fill:rgb(155,4,143)"/><path d="M190.17944623249255,60.1995015988743L182.65710040852034,34.52155519230069L190.43182122843743,69.51372098632426z" style="fill:rgb(247,158,158)"/><path d="M182.71846897991014,41.26325195536823L-100.37993210607884,111.07791807881635L181.7708875801308,44.54949096468806z" style="fill:rgb(93,250,135)"/><path d="M190.43182122843743,69.51372098632426L182.65710040852034,34.52155519230069L182.71846897991014,41.26325195536823zM190.43182122843743,69.51372098632426L182.71846897991014,41.26325195536823L189.38660098332724,74.47724221652184z" style="fill:rgb(247,158,158)"/><path d="M-102.27639941429865,140.64588619793255L189.38660098332724,74.47724221652184L186.98857688498558,74.57569823404457z" style="fill:rgb(155,4,143)"/><path d="M189.38660098332724,74.47724221652184L182.71846897991014,41.26325195536823L181.7708875801308,44.54949096468806z" style="fill:rgb(247,158,158)"/><path d="M-102.27639941429865,140.64588619793255L183.23621382644993,69.43912797617308L-112.29346584404445,137.35898747402425z" style="fill:rgb(148,8,167)"/><path d="M189.38660098332724,74.47724221652184L181.7708875801308,44.54949096468806L179.7941478891067,44.05780036382396z" style="fill:rgb(247,158,158)"/><path d="M183.23621382644993,69.43912797617308L-102.27639941429865,140.64588619793255L186.98857688498558,74.57569823404457z" style="fill:rgb(148,8,167)"/><path d="M189.38660098332724,74.47724221652184L179.7941478891067,44.05780036382396L186.98857688498558,74.57569823404457z" style="fill:rgb(247,158,158)"/><path d="M-112.29346584404445,137.35898747402425L178.19765004487576,58.912416290914216L-123.20189817267793,129.01492973048545z" style="fill:rgb(140,16,189)"/><path d="M186.98857688498558,74.57569823404457L179.7941478891067,44.05780036382396L176.81046088263582,39.5924741745396z" style="fill:rgb(247,158,158)"/><path d="M178.19765004487576,58.912416290914216L-112.29346584404445,137.35898747402425L183.23621382644993,69.43912797617308z" style="fill:rgb(140,16,189)"/><path d="M172.02376838889774,43.12535657657642L-131.7480286348827,91.6094041055132L-134.54798725162541,115.68251932929773z" style="fill:rgb(83,212,212)"/><path d="M100.68377289810157,-209.51154083489962L-124.41242493013247,28.540302580434197L158.13160749146834,-44.43501622548482z" style="fill:rgb(127,37,217)"/><path d="M-123.20189817267793,129.01492973048545L172.02376838889774,43.12535657657642L-134.54798725162541,115.68251932929773z" style="fill:rgb(131,29,208)"/><path d="M186.98857688498558,74.57569823404457L176.81046088263582,39.5924741745396L183.23621382644993,69.43912797617308zM183.23621382644993,69.43912797617308L176.81046088263582,39.5924741745396L172.89265202270562,31.12557801040532zM154.8689674219385,-64.99898476658662L100.68377289810157,-209.51154083489962L158.13160749146834,-44.43501622548482z" style="fill:rgb(247,158,158)"/><path d="M-131.7480286348827,91.6094041055132L172.02376838889774,43.12535657657642L168.16967533964345,18.833539043102988z" style="fill:rgb(83,212,212)"/><path d="M172.02376838889774,43.12535657657642L-123.20189817267793,129.01492973048545L178.19765004487576,58.912416290914216z" style="fill:rgb(131,29,208)"/><path d="M-124.41242493013247,28.540302580434197L100.68377289810157,-209.51154083489962L-217.11592919259778,-113.64351761656118z" style="fill:rgb(127,37,217)"/><path d="M183.23621382644993,69.43912797617308L172.89265202270562,31.12557801040532L178.19765004487576,58.912416290914216zM178.19765004487576,58.912416290914216L172.89265202270562,31.12557801040532L168.16967533964345,18.833539043102988zM178.19765004487576,58.912416290914216L168.16967533964345,18.833539043102988L172.02376838889774,43.12535657657642zM100.68377289810157,-209.51154083489962L154.8689674219385,-64.99898476658662L98.29812901198723,-229.2159561463789z" style="fill:rgb(247,158,158)"/><path d="M100.68377289810157,-209.51154083489962L-212.3570703187091,-133.972355531533L-217.11592919259778,-113.64351761656118zM-212.3570703187091,-133.972355531533L100.68377289810157,-209.51154083489962L98.29812901198723,-229.2159561463789z" style="fill:rgb(83,212,212)"/></svg>
