solid JSxCAD
facet normal 0 1 0
outer loop
vertex 10 -30 0
vertex 9.80785 -30 -1.9509
vertex 9.2388 -30 -3.82683
endloop
endfacet
facet normal 0 1 0
outer loop
vertex 10 -30 0
vertex 9.2388 -30 -3.82683
vertex 8.3147 -30 -5.5557
endloop
endfacet
facet normal 0 1 0
outer loop
vertex 10 -30 0
vertex 8.3147 -30 -5.5557
vertex 7.07107 -30 -7.07107
endloop
endfacet
facet normal 0 1 0
outer loop
vertex 10 -30 0
vertex 7.07107 -30 -7.07107
vertex 5.5557 -30 -8.3147
endloop
endfacet
facet normal 0 1 0
outer loop
vertex 10 -30 0
vertex 5.5557 -30 -8.3147
vertex 3.82683 -30 -9.2388
endloop
endfacet
facet normal 0 1 0
outer loop
vertex 10 -30 0
vertex 3.82683 -30 -9.2388
vertex 1.9509 -30 -9.80785
endloop
endfacet
facet normal 0 1 0
outer loop
vertex 10 -30 0
vertex 1.9509 -30 -9.80785
vertex 0 -30 -10
endloop
endfacet
facet normal 0 -1 0
outer loop
vertex 10 -30 0
vertex 0 -30 -10
vertex 0 -30 -13
endloop
endfacet
facet normal 0 -1 0
outer loop
vertex 10 -30 0
vertex 0 -30 -13
vertex 2.53617 -30 -12.75021
endloop
endfacet
facet normal 0 -1 0
outer loop
vertex 10 -30 0
vertex 2.53617 -30 -12.75021
vertex 4.97488 -30 -12.01043
endloop
endfacet
facet normal 0 -1 0
outer loop
vertex 10 -30 0
vertex 4.97488 -30 -12.01043
vertex 7.22241 -30 -10.8091
endloop
endfacet
facet normal 0 -1 0
outer loop
vertex 10 -30 0
vertex 7.22241 -30 -10.8091
vertex 9.19239 -30 -9.19239
endloop
endfacet
facet normal 0 -1 0
outer loop
vertex 10 -30 0
vertex 9.19239 -30 -9.19239
vertex 10.8091 -30 -7.22241
endloop
endfacet
facet normal 0 -1 0
outer loop
vertex 10 -30 0
vertex 10.8091 -30 -7.22241
vertex 12.01043 -30 -4.97488
endloop
endfacet
facet normal 0 -1 0
outer loop
vertex 10 -30 0
vertex 12.01043 -30 -4.97488
vertex 12.75021 -30 -2.53617
endloop
endfacet
facet normal 0 -1 0
outer loop
vertex 10 -30 0
vertex 12.75021 -30 -2.53617
vertex 13 -30 0
endloop
endfacet
facet normal 0 1 0
outer loop
vertex 13 0 0
vertex 12.75021 0 -2.53617
vertex 12.01043 0 -4.97488
endloop
endfacet
facet normal 0 1 0
outer loop
vertex 13 0 0
vertex 12.01043 0 -4.97488
vertex 10.8091 0 -7.22241
endloop
endfacet
facet normal 0 1 0
outer loop
vertex 13 0 0
vertex 10.8091 0 -7.22241
vertex 9.19239 0 -9.19239
endloop
endfacet
facet normal 0 1 0
outer loop
vertex 13 0 0
vertex 9.19239 0 -9.19239
vertex 7.22241 0 -10.8091
endloop
endfacet
facet normal 0 1 0
outer loop
vertex 13 0 0
vertex 7.22241 0 -10.8091
vertex 4.97488 0 -12.01043
endloop
endfacet
facet normal 0 1 0
outer loop
vertex 13 0 0
vertex 4.97488 0 -12.01043
vertex 2.53617 0 -12.75021
endloop
endfacet
facet normal 0 1 0
outer loop
vertex 13 0 0
vertex 2.53617 0 -12.75021
vertex 0 0 -13
endloop
endfacet
facet normal 0 1 0
outer loop
vertex 13 0 0
vertex 0 0 -13
vertex 0 0 -10
endloop
endfacet
facet normal 0 -1 0
outer loop
vertex 13 0 0
vertex 0 0 -10
vertex 1.9509 0 -9.80785
endloop
endfacet
facet normal 0 -1 0
outer loop
vertex 13 0 0
vertex 1.9509 0 -9.80785
vertex 3.82683 0 -9.2388
endloop
endfacet
facet normal 0 -1 0
outer loop
vertex 13 0 0
vertex 3.82683 0 -9.2388
vertex 5.5557 0 -8.3147
endloop
endfacet
facet normal 0 -1 0
outer loop
vertex 13 0 0
vertex 5.5557 0 -8.3147
vertex 7.07107 0 -7.07107
endloop
endfacet
facet normal 0 1 0
outer loop
vertex 13 0 0
vertex 7.07107 0 -7.07107
vertex 8.3147 0 -5.5557
endloop
endfacet
facet normal 0 1 0
outer loop
vertex 13 0 0
vertex 8.3147 0 -5.5557
vertex 9.2388 0 -3.82683
endloop
endfacet
facet normal 0 1 0
outer loop
vertex 13 0 0
vertex 9.2388 0 -3.82683
vertex 9.80785 0 -1.9509
endloop
endfacet
facet normal 0 1 0
outer loop
vertex 13 0 0
vertex 9.80785 0 -1.9509
vertex 10 0 0
endloop
endfacet
facet normal 0.9951847627458124 0 -0.09801677406730516
outer loop
vertex 13 0 0
vertex 13 -30 0
vertex 12.75021 -30 -2.53617
endloop
endfacet
facet normal 0.9951847627458124 0 -0.09801677406730516
outer loop
vertex 13 0 0
vertex 12.75021 -30 -2.53617
vertex 12.75021 0 -2.53617
endloop
endfacet
facet normal 0.9569397461158817 0 -0.29028662095189944
outer loop
vertex 12.75021 0 -2.53617
vertex 12.75021 -30 -2.53617
vertex 12.01043 -30 -4.97488
endloop
endfacet
facet normal 0.9569397461158817 0 -0.29028662095189944
outer loop
vertex 12.75021 0 -2.53617
vertex 12.01043 -30 -4.97488
vertex 12.01043 0 -4.97488
endloop
endfacet
facet normal 0.8819212339051208 0 -0.47139679378127874
outer loop
vertex 12.01043 0 -4.97488
vertex 12.01043 -30 -4.97488
vertex 10.8091 -30 -7.22241
endloop
endfacet
facet normal 0.8819212339051208 0 -0.47139679378127874
outer loop
vertex 12.01043 0 -4.97488
vertex 10.8091 -30 -7.22241
vertex 10.8091 0 -7.22241
endloop
endfacet
facet normal 0.7730125324212194 0 -0.6343907508150899
outer loop
vertex 10.8091 0 -7.22241
vertex 10.8091 -30 -7.22241
vertex 9.19239 -30 -9.19239
endloop
endfacet
facet normal 0.7730125324212194 0 -0.6343907508150899
outer loop
vertex 10.8091 0 -7.22241
vertex 9.19239 -30 -9.19239
vertex 9.19239 0 -9.19239
endloop
endfacet
facet normal 0.6343907508150899 0 -0.7730125324212194
outer loop
vertex 9.19239 0 -9.19239
vertex 9.19239 -30 -9.19239
vertex 7.22241 -30 -10.8091
endloop
endfacet
facet normal 0.6343907508150899 0 -0.7730125324212194
outer loop
vertex 9.19239 0 -9.19239
vertex 7.22241 -30 -10.8091
vertex 7.22241 0 -10.8091
endloop
endfacet
facet normal 0.47139679378127874 0 -0.8819212339051208
outer loop
vertex 7.22241 0 -10.8091
vertex 7.22241 -30 -10.8091
vertex 4.97488 -30 -12.01043
endloop
endfacet
facet normal 0.47139679378127874 0 -0.8819212339051208
outer loop
vertex 7.22241 0 -10.8091
vertex 4.97488 -30 -12.01043
vertex 4.97488 0 -12.01043
endloop
endfacet
facet normal 0.29028662095189944 0 -0.9569397461158817
outer loop
vertex 4.97488 0 -12.01043
vertex 4.97488 -30 -12.01043
vertex 2.53617 -30 -12.75021
endloop
endfacet
facet normal 0.29028662095189944 0 -0.9569397461158817
outer loop
vertex 4.97488 0 -12.01043
vertex 2.53617 -30 -12.75021
vertex 2.53617 0 -12.75021
endloop
endfacet
facet normal 0.09801677406730516 0 -0.9951847627458124
outer loop
vertex 2.53617 0 -12.75021
vertex 2.53617 -30 -12.75021
vertex 0 -30 -13
endloop
endfacet
facet normal 0.09801677406730516 0 -0.9951847627458124
outer loop
vertex 2.53617 0 -12.75021
vertex 0 -30 -13
vertex 0 0 -13
endloop
endfacet
facet normal -1 0 0
outer loop
vertex 0 0 -13
vertex 0 -30 -13
vertex 0 -30 -10
endloop
endfacet
facet normal -1 0 0
outer loop
vertex 0 0 -13
vertex 0 -30 -10
vertex 0 0 -10
endloop
endfacet
facet normal -0.09801871720095075 0 0.9951845713626593
outer loop
vertex 0 0 -10
vertex 0 -30 -10
vertex 1.9509 -30 -9.80785
endloop
endfacet
facet normal -0.09801871720095075 0 0.9951845713626593
outer loop
vertex 0 0 -10
vertex 1.9509 -30 -9.80785
vertex 1.9509 0 -9.80785
endloop
endfacet
facet normal -0.29028133998709427 0 0.9569413480748425
outer loop
vertex 1.9509 0 -9.80785
vertex 1.9509 -30 -9.80785
vertex 3.82683 -30 -9.2388
endloop
endfacet
facet normal -0.29028133998709427 0 0.9569413480748425
outer loop
vertex 1.9509 0 -9.80785
vertex 3.82683 -30 -9.2388
vertex 3.82683 0 -9.2388
endloop
endfacet
facet normal -0.4713966306487396 0 0.8819213211012736
outer loop
vertex 3.82683 0 -9.2388
vertex 3.82683 -30 -9.2388
vertex 5.5557 -30 -8.3147
endloop
endfacet
facet normal -0.4713966306487396 0 0.8819213211012736
outer loop
vertex 3.82683 0 -9.2388
vertex 5.5557 -30 -8.3147
vertex 5.5557 0 -8.3147
endloop
endfacet
facet normal -0.6343926686613754 0 0.7730109584919856
outer loop
vertex 5.5557 0 -8.3147
vertex 5.5557 -30 -8.3147
vertex 7.07107 -30 -7.07107
endloop
endfacet
facet normal -0.6343926686613754 0 0.7730109584919856
outer loop
vertex 5.5557 0 -8.3147
vertex 7.07107 -30 -7.07107
vertex 7.07107 0 -7.07107
endloop
endfacet
facet normal -0.7730109584919856 0 0.6343926686613754
outer loop
vertex 7.07107 0 -7.07107
vertex 7.07107 -30 -7.07107
vertex 8.3147 -30 -5.5557
endloop
endfacet
facet normal -0.7730109584919856 0 0.6343926686613754
outer loop
vertex 7.07107 0 -7.07107
vertex 8.3147 -30 -5.5557
vertex 8.3147 0 -5.5557
endloop
endfacet
facet normal -0.8819213211012736 0 0.4713966306487396
outer loop
vertex 8.3147 0 -5.5557
vertex 8.3147 -30 -5.5557
vertex 9.2388 -30 -3.82683
endloop
endfacet
facet normal -0.8819213211012736 0 0.4713966306487396
outer loop
vertex 8.3147 0 -5.5557
vertex 9.2388 -30 -3.82683
vertex 9.2388 0 -3.82683
endloop
endfacet
facet normal -0.9569413480748425 0 0.29028133998709427
outer loop
vertex 9.2388 0 -3.82683
vertex 9.2388 -30 -3.82683
vertex 9.80785 -30 -1.9509
endloop
endfacet
facet normal -0.9569413480748425 0 0.29028133998709427
outer loop
vertex 9.2388 0 -3.82683
vertex 9.80785 -30 -1.9509
vertex 9.80785 0 -1.9509
endloop
endfacet
facet normal -0.9951845713626593 0 0.09801871720095075
outer loop
vertex 9.80785 0 -1.9509
vertex 9.80785 -30 -1.9509
vertex 10 -30 0
endloop
endfacet
facet normal -0.9951845713626593 0 0.09801871720095075
outer loop
vertex 9.80785 0 -1.9509
vertex 10 -30 0
vertex 10 0 0
endloop
endfacet
facet normal 0 0 1
outer loop
vertex 10 0 0
vertex 10 -30 0
vertex 13 -30 0
endloop
endfacet
facet normal 0 0 1
outer loop
vertex 10 0 0
vertex 13 -30 0
vertex 13 0 0
endloop
endfacet
endsolid JSxCAD
