<?xml version="1.0" encoding="UTF-8"?>
<!-- Generated by jsxcad -->
<!DOCTYPE svg PUBLIC "-//W3C//DTD SVG 1.1 Tiny//EN" "http://www.w3.org/Graphics/SVG/1.1/DTD/svg11-tiny.dtd">
<svg viewBox="-250 -250 500 500" width="500" height="500" xmlns="http://www.w3.org/2000/svg"><path d="M80.90805149399728,35.68150927651185L-118.86773369291384,79.80013111429263L-119.69714969528384,84.56919251339147z" style="fill:rgb(84,220,202)"/><path d="M80.67869684826336,39.394471342706304L-119.69714969528384,84.56919251339147L-121.06741172090977,88.38142850747128z" style="fill:rgb(85,234,182)"/><path d="M-122.93692872119925,91.07900102300766L80.67869684826336,39.394471342706304L-121.06741172090977,88.38142850747128z" style="fill:rgb(89,244,159)"/><path d="M-118.86773369291384,79.80013111429263L80.90805149399728,35.68150927651185L80.72060888103917,30.92817983937233z" style="fill:rgb(84,220,202)"/><path d="M-125.24426545276532,92.5392439256984L80.03354826215076,41.91082133923618L-122.93692872119925,91.07900102300766z" style="fill:rgb(93,250,135)"/><path d="M-119.69714969528384,84.56919251339147L80.67869684826336,39.394471342706304L80.90805149399728,35.68150927651185z" style="fill:rgb(85,234,182)"/><path d="M81.7275436071289,54.0056581980999L-126.15490718470937,103.18209442887806L-122.70444185122965,102.90861831992805z" style="fill:rgb(155,4,143)"/><path d="M80.72060888103917,30.92817983937233L84.1412346082813,44.1282248974732L83.87721014958312,37.9341692648373z" style="fill:rgb(247,158,158)"/><path d="M80.67869684826336,39.394471342706304L-122.93692872119925,91.07900102300766L80.03354826215076,41.91082133923618z" style="fill:rgb(89,244,159)"/><path d="M84.1412346082813,44.1282248974732L80.72060888103917,30.92817983937233L83.8694421019818,49.003600103592355zM83.8694421019818,49.003600103592355L80.72060888103917,30.92817983937233L80.90805149399728,35.68150927651185z" style="fill:rgb(247,158,158)"/><path d="M-126.15490718470937,103.18209442887806L77.67111514465834,51.86921554992057L-129.95791247252163,101.69336757981503z" style="fill:rgb(148,8,167)"/><path d="M80.03354826215076,41.91082133923618L-125.24426545276532,92.5392439256984L78.98884536747103,43.1121364759193z" style="fill:rgb(93,250,135)"/><path d="M83.8694421019818,49.003600103592355L80.90805149399728,35.68150927651185L80.67869684826336,39.394471342706304zM83.8694421019818,49.003600103592355L80.67869684826336,39.394471342706304L83.05929172875133,52.3509443300686z" style="fill:rgb(247,158,158)"/><path d="M-129.95791247252163,101.69336757981503L75.0856482916801,48.06976868459067L-133.9680111005538,98.45996610082464z" style="fill:rgb(140,16,189)"/><path d="M-126.15490718470937,103.18209442887806L81.7275436071289,54.0056581980999L79.91179301259035,53.85908038931523z" style="fill:rgb(155,4,143)"/><path d="M83.05929172875133,52.3509443300686L80.67869684826336,39.394471342706304L80.03354826215076,41.91082133923618zM83.05929172875133,52.3509443300686L80.03354826215076,41.91082133923618L81.7275436071289,54.0056581980999z" style="fill:rgb(247,158,158)"/><path d="M77.67111514465834,51.86921554992057L-126.15490718470937,103.18209442887806L79.91179301259035,53.85908038931523z" style="fill:rgb(148,8,167)"/><path d="M72.2546251810376,42.57590700124684L-137.0012295191095,85.16885940108072L-138.0239560821114,93.57667591566948z" style="fill:rgb(83,212,212)"/><path d="M-133.9680111005538,98.45996610082464L72.2546251810376,42.57590700124684L-138.0239560821114,93.57667591566948z" style="fill:rgb(131,29,208)"/><path d="M81.7275436071289,54.0056581980999L80.03354826215076,41.91082133923618L78.98884536747103,43.1121364759193zM81.7275436071289,54.0056581980999L78.98884536747103,43.1121364759193L77.57675657944021,42.92538673954142z" style="fill:rgb(247,158,158)"/><path d="M75.0856482916801,48.06976868459067L-129.95791247252163,101.69336757981503L77.67111514465834,51.86921554992057z" style="fill:rgb(140,16,189)"/><path d="M81.7275436071289,54.0056581980999L77.57675657944021,42.92538673954142L79.91179301259035,53.85908038931523zM79.91179301259035,53.85908038931523L77.57675657944021,42.92538673954142L75.84535809954843,41.32971024635325z" style="fill:rgb(247,158,158)"/><path d="M-137.0012295191095,85.16885940108072L72.2546251810376,42.57590700124684L71.69065513513296,34.11734786570907z" style="fill:rgb(83,212,212)"/><path d="M72.2546251810376,42.57590700124684L-133.9680111005538,98.45996610082464L75.0856482916801,48.06976868459067z" style="fill:rgb(131,29,208)"/><path d="M79.91179301259035,53.85908038931523L75.84535809954843,41.32971024635325L77.67111514465834,51.86921554992057zM77.67111514465834,51.86921554992057L75.84535809954843,41.32971024635325L73.85783645570554,38.36155592538781zM77.67111514465834,51.86921554992057L73.85783645570554,38.36155592538781L75.0856482916801,48.06976868459067zM75.0856482916801,48.06976868459067L73.85783645570554,38.36155592538781L71.69065513513296,34.11734786570907zM75.0856482916801,48.06976868459067L71.69065513513296,34.11734786570907L72.2546251810376,42.57590700124684z" style="fill:rgb(247,158,158)"/><path d="M142.41196206750635,-128.0886177180725L-34.75146766436924,41.109145314282884L181.22967579346042,-12.750937136874791z" style="fill:rgb(127,37,217)"/><path d="M139.9672255488438,-143.76226060005064L181.22967579346042,-12.750937136874791L178.42060267219293,-28.69068103384936z" style="fill:rgb(247,158,158)"/><path d="M-34.75146766436924,41.109145314282884L142.41196206750635,-128.0886177180725L-93.6778176952389,-62.16786970558243z" style="fill:rgb(127,37,217)"/><path d="M142.41196206750635,-128.0886177180725L-92.15884890770354,-78.04134703354202L-93.6778176952389,-62.16786970558243z" style="fill:rgb(83,212,212)"/><path d="M181.22967579346042,-12.750937136874791L139.9672255488438,-143.76226060005064L142.41196206750635,-128.0886177180725z" style="fill:rgb(247,158,158)"/><path d="M-92.15884890770354,-78.04134703354202L142.41196206750635,-128.0886177180725L139.9672255488438,-143.76226060005064z" style="fill:rgb(83,212,212)"/></svg>
