<?xml version="1.0" encoding="UTF-8"?>
<!-- Generated by jsxcad -->
<!DOCTYPE svg PUBLIC "-//W3C//DTD SVG 1.1 Tiny//EN" "http://www.w3.org/Graphics/SVG/1.1/DTD/svg11-tiny.dtd">
<svg viewBox="-250 -250 500 500" width="500" height="500" xmlns="http://www.w3.org/2000/svg"><path d="M197.79128657449957,33.33591914869957L-101.6751476823106,97.6492981774297L-102.75709917353268,104.72888374899307z" style="fill:rgb(84,220,202)"/><path d="M198.50413085352574,38.870117703531996L-102.75709917353268,104.72888374899307L-104.61663435283674,110.46686421649366z" style="fill:rgb(85,234,182)"/><path d="M-107.20539060488021,114.62022319357342L198.50413085352574,38.870117703531996L-104.61663435283674,110.46686421649366z" style="fill:rgb(89,244,159)"/><path d="M-101.6751476823106,97.6492981774297L197.79128657449957,33.33591914869957L196.5943027892839,26.281816448865527z" style="fill:rgb(84,220,202)"/><path d="M-110.4461245876586,116.98991045409876L198.6938562933161,42.64224271875079L-107.20539060488021,114.62022319357342z" style="fill:rgb(93,250,135)"/><path d="M-102.75709917353268,104.72888374899307L198.50413085352574,38.870117703531996L197.79128657449957,33.33591914869957z" style="fill:rgb(85,234,182)"/><path d="M202.52236053658916,60.8707902145676L-111.59866159873418,133.00889836207133L-106.70681302862337,132.2401204129084z" style="fill:rgb(155,4,143)"/><path d="M198.50413085352574,38.870117703531996L-107.20539060488021,114.62022319357342L198.6938562933161,42.64224271875079z" style="fill:rgb(89,244,159)"/><path d="M197.79128657449957,33.33591914869957L200.0840030856713,36.71872359039788L196.5943027892839,26.281816448865527zM200.0840030856713,36.71872359039788L198.50413085352574,38.870117703531996L201.66324494048735,45.921981763693275zM200.0840030856713,36.71872359039788L197.79128657449957,33.33591914869957L198.50413085352574,38.870117703531996z" style="fill:rgb(247,158,158)"/><path d="M-111.59866159873418,133.00889836207133L199.57338703111284,57.806272649747484L-117.05639279817989,131.1629295096614z" style="fill:rgb(148,8,167)"/><path d="M198.6938562933161,42.64224271875079L-110.4461245876586,116.98991045409876L198.33795216785575,44.459211938697536z" style="fill:rgb(93,250,135)"/><path d="M201.66324494048735,45.921981763693275L198.50413085352574,38.870117703531996L198.6938562933161,42.64224271875079z" style="fill:rgb(247,158,158)"/><path d="M-117.05639279817989,131.1629295096614L197.09593467583483,52.07894638397311L-122.87392424770132,126.6845487119202z" style="fill:rgb(140,16,189)"/><path d="M201.66324494048735,45.921981763693275L198.6938562933161,42.64224271875079L198.33795216785575,44.459211938697536z" style="fill:rgb(247,158,158)"/><path d="M-111.59866159873418,133.00889836207133L202.52236053658916,60.8707902145676L201.39849353634838,60.74126040122891z" style="fill:rgb(155,4,143)"/><path d="M-128.81421768006584,119.67778873876648L191.7390491680914,30.789123034697525L-127.39594900812784,106.89721879019348z" style="fill:rgb(83,212,212)"/><path d="M201.66324494048735,45.921981763693275L197.09593467583483,52.07894638397311L202.63012825211533,53.2244198490287z" style="fill:rgb(247,158,158)"/><path d="M199.57338703111284,57.806272649747484L-111.59866159873418,133.00889836207133L201.39849353634838,60.74126040122891z" style="fill:rgb(148,8,167)"/><path d="M-122.87392424770132,126.6845487119202L194.04955027121704,43.705842181591535L-128.81421768006584,119.67778873876648z" style="fill:rgb(131,29,208)"/><path d="M202.63012825211533,53.2244198490287L199.57338703111284,57.806272649747484L202.9287277575318,58.298607456373624zM202.9287277575318,58.298607456373624L201.39849353634838,60.74126040122891L202.52236053658916,60.8707902145676zM198.33795216785575,44.459211938697536L197.09593467583483,52.07894638397311L201.66324494048735,45.921981763693275z" style="fill:rgb(247,158,158)"/><path d="M197.09593467583483,52.07894638397311L-117.05639279817989,131.1629295096614L199.57338703111284,57.806272649747484z" style="fill:rgb(140,16,189)"/><path d="M202.9287277575318,58.298607456373624L199.57338703111284,57.806272649747484L201.39849353634838,60.74126040122891zM202.63012825211533,53.2244198490287L197.09593467583483,52.07894638397311L199.57338703111284,57.806272649747484zM197.4334325687155,44.190829096667194L197.09593467583483,52.07894638397311L198.33795216785575,44.459211938697536z" style="fill:rgb(247,158,158)"/><path d="M194.04955027121704,43.705842181591535L-122.87392424770132,126.6845487119202L197.09593467583483,52.07894638397311z" style="fill:rgb(131,29,208)"/><path d="M191.7390491680914,30.789123034697525L-128.81421768006584,119.67778873876648L194.04955027121704,43.705842181591535z" style="fill:rgb(83,212,212)"/><path d="M195.9993655820395,41.78350558788368L194.04955027121704,43.705842181591535L197.4334325687155,44.190829096667194zM197.4334325687155,44.190829096667194L194.04955027121704,43.705842181591535L197.09593467583483,52.07894638397311zM194.07877784396163,37.27228467015805L194.04955027121704,43.705842181591535L195.9993655820395,41.78350558788368zM194.04955027121704,43.705842181591535L194.07877784396163,37.27228467015805L191.7390491680914,30.789123034697525z" style="fill:rgb(247,158,158)"/><path d="M127.2262323976548,-174.68470209697168L-124.20506594865654,78.14294372267624L186.55606722491734,1.8139676420063366z" style="fill:rgb(127,37,217)"/><path d="M182.331482666157,-21.803322110594383L127.2262323976548,-174.68470209697168L186.55606722491734,1.8139676420063366z" style="fill:rgb(247,158,158)"/><path d="M-124.20506594865654,78.14294372267624L127.2262323976548,-174.68470209697168L-226.78174064134797,-71.52711096375542z" style="fill:rgb(127,37,217)"/><path d="M127.2262323976548,-174.68470209697168L-221.29275389164934,-94.99488989746949L-226.78174064134797,-71.52711096375542z" style="fill:rgb(83,212,212)"/><path d="M127.2262323976548,-174.68470209697168L182.331482666157,-21.803322110594383L123.8690078461078,-197.5479647691182z" style="fill:rgb(247,158,158)"/><path d="M-221.29275389164934,-94.99488989746949L127.2262323976548,-174.68470209697168L123.8690078461078,-197.5479647691182z" style="fill:rgb(83,212,212)"/></svg>
