<?xml version="1.0" encoding="UTF-8"?>
<!-- Generated by jsxcad -->
<!DOCTYPE svg PUBLIC "-//W3C//DTD SVG 1.1 Tiny//EN" "http://www.w3.org/Graphics/SVG/1.1/DTD/svg11-tiny.dtd">
<svg viewBox="-250 -250 500 500" width="500" height="500" xmlns="http://www.w3.org/2000/svg"><path d="M72.83132004020014,7.61662842783794L-126.46638786106887,48.81278000515376L-128.2091430110608,58.07613221327806z" style="fill:rgb(84,220,202)"/><path d="M72.26922834725124,14.77804293033453L-128.2091430110608,58.07613221327806L-131.07577478619487,65.46937222928025z" style="fill:rgb(85,234,182)"/><path d="M-126.46638786106887,48.81278000515376L72.83132004020014,7.61662842783794L72.54199223895647,-1.5847524748036708z" style="fill:rgb(84,220,202)"/><path d="M-135.00293081892823,70.66321444169462L72.26922834725124,14.77804293033453L-131.07577478619487,65.46937222928025z" style="fill:rgb(89,244,159)"/><path d="M-128.2091430110608,58.07613221327806L72.26922834725124,14.77804293033453L72.83132004020014,7.61662842783794z" style="fill:rgb(85,234,182)"/><path d="M72.83132004020014,7.61662842783794L78.91822748986286,12.764660464093543L72.54199223895647,-1.5847524748036708zM78.91822748986286,12.764660464093543L72.26922834725124,14.77804293033453L79.37770390010112,24.79421057595008z" style="fill:rgb(247,158,158)"/><path d="M-139.8849519162281,73.381117964364L70.84455899083123,19.5698628044888L-135.00293081892823,70.66321444169462z" style="fill:rgb(93,250,135)"/><path d="M78.91822748986286,12.764660464093543L72.83132004020014,7.61662842783794L72.26922834725124,14.77804293033453z" style="fill:rgb(247,158,158)"/><path d="M72.26922834725124,14.77804293033453L-135.00293081892823,70.66321444169462L70.84455899083123,19.5698628044888z" style="fill:rgb(89,244,159)"/><path d="M79.37770390010112,24.79421057595008L72.26922834725124,14.77804293033453L70.84455899083123,19.5698628044888z" style="fill:rgb(247,158,158)"/><path d="M74.18232513749314,44.034244217567846L-142.03055078370676,95.01742540095194L-134.6946507209617,94.59744962157805z" style="fill:rgb(155,4,143)"/><path d="M70.84455899083123,19.5698628044888L-139.8849519162281,73.381117964364L68.57563442177134,21.719541281542902z" style="fill:rgb(93,250,135)"/><path d="M79.37770390010112,24.79421057595008L70.84455899083123,19.5698628044888L68.57563442177134,21.719541281542902zM79.37770390010112,24.79421057595008L59.7868121759788,30.995173000202367L78.7554361808191,34.30645393961697z" style="fill:rgb(247,158,158)"/><path d="M-142.03055078370676,95.01742540095194L74.18232513749314,44.034244217567846L70.28677127628747,43.54768514492313z" style="fill:rgb(155,4,143)"/><path d="M78.7554361808191,34.30645393961697L65.43586186218003,39.20823182298732L77.02171743549403,40.851327210182305z" style="fill:rgb(247,158,158)"/><path d="M-142.03055078370676,95.01742540095194L65.43586186218003,39.20823182298732L-150.22311756900214,91.77732407284259z" style="fill:rgb(148,8,167)"/><path d="M77.02171743549403,40.851327210182305L70.28677127628747,43.54768514492313L74.18232513749314,44.034244217567846zM68.57563442177134,21.719541281542902L59.7868121759788,30.995173000202367L79.37770390010112,24.79421057595008z" style="fill:rgb(247,158,158)"/><path d="M65.43586186218003,39.20823182298732L-142.03055078370676,95.01742540095194L70.28677127628747,43.54768514492313z" style="fill:rgb(148,8,167)"/><path d="M-150.22311756900214,91.77732407284259L59.7868121759788,30.995173000202367L-158.9656519945971,84.829220808499z" style="fill:rgb(140,16,189)"/><path d="M77.02171743549403,40.851327210182305L65.43586186218003,39.20823182298732L70.28677127628747,43.54768514492313zM78.7554361808191,34.30645393961697L59.7868121759788,30.995173000202367L65.43586186218003,39.20823182298732zM65.51485135670723,21.033140873096038L59.7868121759788,30.995173000202367L68.57563442177134,21.719541281542902z" style="fill:rgb(247,158,158)"/><path d="M59.7868121759788,30.995173000202367L-150.22311756900214,91.77732407284259L65.43586186218003,39.20823182298732z" style="fill:rgb(140,16,189)"/><path d="M53.55394280098667,19.0845422213855L-165.28320268411468,56.96394401030835L-167.89383887372168,74.30804713018085z" style="fill:rgb(83,212,212)"/><path d="M-158.9656519945971,84.829220808499L53.55394280098667,19.0845422213855L-167.89383887372168,74.30804713018085z" style="fill:rgb(131,29,208)"/><path d="M-56.71391647602979,-16.308791974525647L143.45563090592964,-134.00040698046712L-86.50956276398952,-69.48129101045781zM143.45563090592964,-134.00040698046712L-56.71391647602979,-16.308791974525647L163.28133853808296,-74.63788251762337z" style="fill:rgb(127,37,217)"/><path d="M61.752135815899294,17.418547736178212L53.55394280098667,19.0845422213855L65.51485135670723,21.033140873096038z" style="fill:rgb(247,158,158)"/><path d="M-165.28320268411468,56.96394401030835L53.55394280098667,19.0845422213855L52.67445128232869,1.6733520341374017z" style="fill:rgb(83,212,212)"/><path d="M53.55394280098667,19.0845422213855L-158.9656519945971,84.829220808499L59.7868121759788,30.995173000202367z" style="fill:rgb(131,29,208)"/><path d="M143.45563090592964,-134.00040698046712L-85.14297553150598,-84.83016274316947L-86.50956276398952,-69.48129101045781z" style="fill:rgb(83,212,212)"/><path d="M160.6902096846053,-89.975039985921L143.45563090592964,-134.00040698046712L163.28133853808296,-74.63788251762337zM65.51485135670723,21.033140873096038L53.55394280098667,19.0845422213855L59.7868121759788,30.995173000202367zM57.41650120410882,10.907590999514312L53.55394280098667,19.0845422213855L61.752135815899294,17.418547736178212zM53.55394280098667,19.0845422213855L57.41650120410882,10.907590999514312L52.67445128232869,1.6733520341374017z" style="fill:rgb(247,158,158)"/><path d="M-85.14297553150598,-84.83016274316947L143.45563090592964,-134.00040698046712L141.0600660511013,-149.14834124953612z" style="fill:rgb(83,212,212)"/><path d="M143.45563090592964,-134.00040698046712L160.6902096846053,-89.975039985921L141.0600660511013,-149.14834124953612z" style="fill:rgb(247,158,158)"/></svg>
